<svg width="343" height="100" viewBox="0 0 343 100" fill="none" xmlns="http://www.w3.org/2000/svg">
<path d="M0 14C0 6.26801 6.26801 0 14 0H329C336.732 0 343 6.26801 343 14V31.8494C343 35.6432 341.149 39.1983 338.041 41.3739L337.853 41.5057C331.277 46.1088 331.343 55.8697 337.981 60.3834C341.121 62.5185 343 66.0693 343 69.8663V85.8228C343 93.5547 336.732 99.8228 329 99.8228H14C6.26801 99.8228 0 93.5547 0 85.8228V68.8793C0 65.0215 2.00333 61.4406 5.29077 59.422L5.83518 59.0877C12.8083 54.8059 12.6088 44.606 5.47353 40.6002C2.09285 38.7023 0 35.1273 0 31.2503V14Z" fill="#191919"/>
<path d="M29.0664 42.7637V40.3262L34.7617 35.0527C35.2461 34.584 35.6523 34.1621 35.9805 33.7871C36.3138 33.4121 36.5664 33.0449 36.7383 32.6855C36.9102 32.321 36.9961 31.9277 36.9961 31.5059C36.9961 31.0371 36.8893 30.6335 36.6758 30.2949C36.4622 29.9512 36.1706 29.6882 35.8008 29.5059C35.431 29.3184 35.0117 29.2246 34.543 29.2246C34.0534 29.2246 33.6263 29.3236 33.2617 29.5215C32.8971 29.7194 32.6159 30.0033 32.418 30.373C32.2201 30.7428 32.1211 31.1829 32.1211 31.6934H28.9102C28.9102 30.6465 29.1471 29.7376 29.6211 28.9668C30.0951 28.196 30.7591 27.5996 31.6133 27.1777C32.4674 26.7559 33.4518 26.5449 34.5664 26.5449C35.7122 26.5449 36.7096 26.748 37.5586 27.1543C38.4128 27.5553 39.0768 28.1126 39.5508 28.8262C40.0247 29.5397 40.2617 30.3574 40.2617 31.2793C40.2617 31.8835 40.1419 32.4798 39.9023 33.0684C39.668 33.6569 39.2487 34.3105 38.6445 35.0293C38.0404 35.7428 37.1888 36.5996 36.0898 37.5996L33.7539 39.8887V39.998H40.4727V42.7637H29.0664ZM49.1973 43.1152C47.8535 43.11 46.6973 42.7793 45.7285 42.123C44.765 41.4668 44.0228 40.5163 43.502 39.2715C42.9863 38.0267 42.7311 36.5293 42.7363 34.7793C42.7363 33.0345 42.9941 31.5475 43.5098 30.3184C44.0306 29.0892 44.7728 28.1543 45.7363 27.5137C46.7051 26.8678 47.8587 26.5449 49.1973 26.5449C50.5358 26.5449 51.6868 26.8678 52.6504 27.5137C53.6191 28.1595 54.3639 29.097 54.8848 30.3262C55.4056 31.5501 55.6634 33.0345 55.6582 34.7793C55.6582 36.5345 55.3978 38.0345 54.877 39.2793C54.3613 40.5241 53.6217 41.4746 52.6582 42.1309C51.6947 42.7871 50.541 43.1152 49.1973 43.1152ZM49.1973 40.3105C50.1139 40.3105 50.8457 39.8496 51.3926 38.9277C51.9395 38.0059 52.2103 36.623 52.2051 34.7793C52.2051 33.5658 52.0801 32.5553 51.8301 31.748C51.5853 30.9408 51.2363 30.334 50.7832 29.9277C50.3353 29.5215 49.8066 29.3184 49.1973 29.3184C48.2858 29.3184 47.5566 29.7741 47.0098 30.6855C46.4629 31.597 46.1868 32.9616 46.1816 34.7793C46.1816 36.0085 46.304 37.0345 46.5488 37.8574C46.7988 38.6751 47.1504 39.2897 47.6035 39.7012C48.0566 40.1074 48.5879 40.3105 49.1973 40.3105ZM66.8281 39.7637V38.9199C66.8281 38.2793 66.9635 37.6908 67.2344 37.1543C67.5104 36.6126 67.9089 36.1803 68.4297 35.8574C68.9557 35.5293 69.5964 35.3652 70.3516 35.3652C71.1172 35.3652 71.7604 35.5267 72.2812 35.8496C72.8073 36.1725 73.2031 36.6048 73.4688 37.1465C73.7396 37.6829 73.875 38.2741 73.875 38.9199V39.7637C73.875 40.4043 73.7396 40.9954 73.4688 41.5371C73.1979 42.0736 72.7995 42.5033 72.2734 42.8262C71.7474 43.1543 71.1068 43.3184 70.3516 43.3184C69.5859 43.3184 68.9427 43.1543 68.4219 42.8262C67.901 42.5033 67.5052 42.0736 67.2344 41.5371C66.9635 40.9954 66.8281 40.4043 66.8281 39.7637ZM69.1016 38.9199V39.7637C69.1016 40.1335 69.1901 40.4824 69.3672 40.8105C69.5495 41.1387 69.8776 41.3027 70.3516 41.3027C70.8255 41.3027 71.1484 41.1413 71.3203 40.8184C71.4974 40.4954 71.5859 40.1439 71.5859 39.7637V38.9199C71.5859 38.5397 71.5026 38.1855 71.3359 37.8574C71.1693 37.5293 70.8411 37.3652 70.3516 37.3652C69.8828 37.3652 69.5573 37.5293 69.375 37.8574C69.1927 38.1855 69.1016 38.5397 69.1016 38.9199ZM58.6172 30.6074V29.7637C58.6172 29.1178 58.7552 28.5267 59.0313 27.9902C59.3073 27.4486 59.7057 27.0163 60.2266 26.6934C60.7526 26.3704 61.388 26.209 62.1328 26.209C62.9036 26.209 63.5495 26.3704 64.0703 26.6934C64.5911 27.0163 64.987 27.4486 65.2578 27.9902C65.5286 28.5267 65.6641 29.1178 65.6641 29.7637V30.6074C65.6641 31.2533 65.526 31.8444 65.25 32.3809C64.9792 32.9173 64.5807 33.347 64.0547 33.6699C63.5339 33.9876 62.8932 34.1465 62.1328 34.1465C61.3724 34.1465 60.7292 33.985 60.2031 33.6621C59.6823 33.334 59.2865 32.9043 59.0156 32.373C58.75 31.8366 58.6172 31.248 58.6172 30.6074ZM60.9063 29.7637V30.6074C60.9063 30.9876 60.9948 31.3392 61.1719 31.6621C61.3542 31.985 61.6745 32.1465 62.1328 32.1465C62.612 32.1465 62.9375 31.985 63.1094 31.6621C63.2865 31.3392 63.375 30.9876 63.375 30.6074V29.7637C63.375 29.3835 63.2917 29.0293 63.125 28.7012C62.9583 28.373 62.6276 28.209 62.1328 28.209C61.6693 28.209 61.349 28.3757 61.1719 28.709C60.9948 29.0423 60.9063 29.3939 60.9063 29.7637ZM59.6484 42.7637L70.6484 26.7637H72.6953L61.6953 42.7637H59.6484ZM96.8652 34.7637C96.8652 36.5085 96.5345 37.9928 95.873 39.2168C95.2168 40.4408 94.321 41.3757 93.1855 42.0215C92.0553 42.6621 90.7845 42.9824 89.373 42.9824C87.9512 42.9824 86.6751 42.6595 85.5449 42.0137C84.4147 41.3678 83.5215 40.4329 82.8652 39.209C82.209 37.985 81.8809 36.5033 81.8809 34.7637C81.8809 33.0189 82.209 31.5345 82.8652 30.3105C83.5215 29.0866 84.4147 28.1543 85.5449 27.5137C86.6751 26.8678 87.9512 26.5449 89.373 26.5449C90.7845 26.5449 92.0553 26.8678 93.1855 27.5137C94.321 28.1543 95.2168 29.0866 95.873 30.3105C96.5345 31.5345 96.8652 33.0189 96.8652 34.7637ZM93.4355 34.7637C93.4355 33.6335 93.2663 32.6803 92.9277 31.9043C92.5944 31.1283 92.123 30.5397 91.5137 30.1387C90.9043 29.7376 90.1908 29.5371 89.373 29.5371C88.5553 29.5371 87.8418 29.7376 87.2324 30.1387C86.623 30.5397 86.1491 31.1283 85.8105 31.9043C85.4772 32.6803 85.3105 33.6335 85.3105 34.7637C85.3105 35.8939 85.4772 36.847 85.8105 37.623C86.1491 38.3991 86.623 38.9876 87.2324 39.3887C87.8418 39.7897 88.5553 39.9902 89.373 39.9902C90.1908 39.9902 90.9043 39.7897 91.5137 39.3887C92.123 38.9876 92.5944 38.3991 92.9277 37.623C93.2663 36.847 93.4355 35.8939 93.4355 34.7637ZM99.3711 42.7637V26.7637H109.965V29.5527H102.754V33.3652H109.262V36.1543H102.754V42.7637H99.3711ZM112.24 42.7637V26.7637H122.834V29.5527H115.623V33.3652H122.131V36.1543H115.623V42.7637H112.24Z" fill="white"/>
<path d="M231.059 42.7637V26.7637H241.84V29.5527H234.441V33.3652H241.285V36.1543H234.441V39.9746H241.871V42.7637H231.059ZM257.912 26.7637V42.7637H254.99L248.029 32.6934H247.912V42.7637H244.529V26.7637H247.498L254.404 36.8262H254.545V26.7637H257.912ZM266.379 42.7637H260.707V26.7637H266.426C268.035 26.7637 269.421 27.084 270.582 27.7246C271.743 28.36 272.637 29.2741 273.262 30.4668C273.892 31.6595 274.207 33.0866 274.207 34.748C274.207 36.4147 273.892 37.847 273.262 39.0449C272.637 40.2428 271.738 41.1621 270.566 41.8027C269.4 42.4434 268.004 42.7637 266.379 42.7637ZM264.09 39.8652H266.238C267.238 39.8652 268.079 39.6882 268.762 39.334C269.449 38.9746 269.965 38.4199 270.309 37.6699C270.658 36.9147 270.832 35.9408 270.832 34.748C270.832 33.5658 270.658 32.5996 270.309 31.8496C269.965 31.0996 269.452 30.5475 268.77 30.1934C268.087 29.8392 267.246 29.6621 266.246 29.6621H264.09V39.8652ZM282.893 43.1152C281.549 43.11 280.393 42.7793 279.424 42.123C278.46 41.4668 277.718 40.5163 277.197 39.2715C276.682 38.0267 276.426 36.5293 276.432 34.7793C276.432 33.0345 276.689 31.5475 277.205 30.3184C277.726 29.0892 278.468 28.1543 279.432 27.5137C280.4 26.8678 281.554 26.5449 282.893 26.5449C284.231 26.5449 285.382 26.8678 286.346 27.5137C287.314 28.1595 288.059 29.097 288.58 30.3262C289.101 31.5501 289.359 33.0345 289.354 34.7793C289.354 36.5345 289.093 38.0345 288.572 39.2793C288.057 40.5241 287.317 41.4746 286.354 42.1309C285.39 42.7871 284.236 43.1152 282.893 43.1152ZM282.893 40.3105C283.809 40.3105 284.541 39.8496 285.088 38.9277C285.635 38.0059 285.906 36.623 285.9 34.7793C285.9 33.5658 285.775 32.5553 285.525 31.748C285.281 30.9408 284.932 30.334 284.479 29.9277C284.031 29.5215 283.502 29.3184 282.893 29.3184C281.981 29.3184 281.252 29.7741 280.705 30.6855C280.158 31.597 279.882 32.9616 279.877 34.7793C279.877 36.0085 279.999 37.0345 280.244 37.8574C280.494 38.6751 280.846 39.2897 281.299 39.7012C281.752 40.1074 282.283 40.3105 282.893 40.3105ZM291.766 42.7637V40.3262L297.461 35.0527C297.945 34.584 298.352 34.1621 298.68 33.7871C299.013 33.4121 299.266 33.0449 299.438 32.6855C299.609 32.321 299.695 31.9277 299.695 31.5059C299.695 31.0371 299.589 30.6335 299.375 30.2949C299.161 29.9512 298.87 29.6882 298.5 29.5059C298.13 29.3184 297.711 29.2246 297.242 29.2246C296.753 29.2246 296.326 29.3236 295.961 29.5215C295.596 29.7194 295.315 30.0033 295.117 30.373C294.919 30.7428 294.82 31.1829 294.82 31.6934H291.609C291.609 30.6465 291.846 29.7376 292.32 28.9668C292.794 28.196 293.458 27.5996 294.313 27.1777C295.167 26.7559 296.151 26.5449 297.266 26.5449C298.411 26.5449 299.409 26.748 300.258 27.1543C301.112 27.5553 301.776 28.1126 302.25 28.8262C302.724 29.5397 302.961 30.3574 302.961 31.2793C302.961 31.8835 302.841 32.4798 302.602 33.0684C302.367 33.6569 301.948 34.3105 301.344 35.0293C300.74 35.7428 299.888 36.5996 298.789 37.5996L296.453 39.8887V39.998H303.172V42.7637H291.766Z" fill="#37CA77"/>
<path d="M27.5934 54.4619H28.8832L30.6104 58.6778H30.6786L32.4059 54.4619H33.6957V60.2801H32.6843V56.2829H32.6303L31.0224 60.263H30.2667L28.6587 56.2744H28.6048V60.2801H27.5934V54.4619ZM35.5906 60.2801H34.4656L36.5138 54.4619H37.815L39.8661 60.2801H38.7411L37.1871 55.6551H37.1417L35.5906 60.2801ZM35.6275 57.9988H38.6957V58.8454H35.6275V57.9988ZM41.5131 54.4619L42.7944 56.5926H42.8398L44.1268 54.4619H45.3285L43.5359 57.371L45.3569 60.2801H44.1353L42.8398 58.1636H42.7944L41.4989 60.2801H40.283L42.1211 57.371L40.3058 54.4619H41.5131ZM51.805 55.8824L51.6033 56.6267H47.8335L48.038 55.8824H51.805ZM49.9102 60.2801L47.9215 57.888L47.9187 57.2574H48.9016C49.1365 57.2574 49.3325 57.2185 49.4897 57.1409C49.6488 57.0613 49.7691 56.9505 49.8505 56.8085C49.9338 56.6646 49.9755 56.496 49.9755 56.3028C49.9755 56.013 49.8903 55.7801 49.7198 55.604C49.5494 55.4278 49.2766 55.3397 48.9016 55.3397H47.8335L48.055 54.4619H48.9016C49.3789 54.4619 49.7738 54.5358 50.0863 54.6835C50.4007 54.8293 50.6355 55.0358 50.7908 55.3028C50.948 55.5699 51.0266 55.8824 51.0266 56.2403C51.0266 56.5566 50.9689 56.8388 50.8533 57.0869C50.7378 57.335 50.556 57.5386 50.3079 57.6977C50.0598 57.8568 49.735 57.9629 49.3335 58.0159L49.2994 58.0272L51.0948 60.229V60.2801H49.9102ZM51.8107 54.4619L51.6033 55.2176L48.5465 55.2062L48.7539 54.4619H51.8107ZM54.6062 60.3596C54.2274 60.3596 53.8884 60.2886 53.5891 60.1466C53.2899 60.0026 53.0522 59.8057 52.8761 59.5557C52.7018 59.3057 52.609 59.0197 52.5977 58.6977H53.6204C53.6393 58.9363 53.7425 59.1314 53.93 59.2829C54.1175 59.4326 54.3429 59.5074 54.6062 59.5074C54.8126 59.5074 54.9963 59.46 55.1573 59.3653C55.3183 59.2706 55.4452 59.139 55.538 58.9704C55.6308 58.8019 55.6763 58.6096 55.6744 58.3937C55.6763 58.174 55.6299 57.979 55.5352 57.8085C55.4405 57.638 55.3107 57.5045 55.146 57.4079C54.9812 57.3094 54.7918 57.2602 54.5778 57.2602C54.4035 57.2583 54.2321 57.2905 54.0636 57.3568C53.895 57.4231 53.7615 57.5102 53.663 57.6182L52.7113 57.4619L53.0153 54.4619H56.3903V55.3426H53.8874L53.7198 56.8852H53.7539C53.8619 56.7583 54.0143 56.6532 54.2113 56.5699C54.4083 56.4846 54.6242 56.442 54.859 56.442C55.2113 56.442 55.5257 56.5254 55.8022 56.692C56.0787 56.8568 56.2965 57.0841 56.4556 57.3738C56.6147 57.6636 56.6942 57.9951 56.6942 58.3682C56.6942 58.7526 56.6052 59.0954 56.4272 59.3966C56.2511 59.6958 56.0058 59.9316 55.6914 60.104C55.3789 60.2744 55.0172 60.3596 54.6062 60.3596ZM59.7965 60.3909C59.3287 60.3909 58.9272 60.2725 58.592 60.0358C58.2586 59.7971 58.002 59.4534 57.8221 59.0045C57.6441 58.5538 57.555 58.0112 57.555 57.3767C57.5569 56.7422 57.6469 56.2024 57.8249 55.7574C58.0049 55.3104 58.2615 54.9695 58.5948 54.7346C58.93 54.4998 59.3306 54.3824 59.7965 54.3824C60.2624 54.3824 60.663 54.4998 60.9982 54.7346C61.3335 54.9695 61.5901 55.3104 61.7681 55.7574C61.948 56.2043 62.038 56.7441 62.038 57.3767C62.038 58.013 61.948 58.5566 61.7681 59.0074C61.5901 59.4562 61.3335 59.799 60.9982 60.0358C60.6649 60.2725 60.2643 60.3909 59.7965 60.3909ZM59.7965 59.5017C60.1602 59.5017 60.4471 59.3227 60.6573 58.9647C60.8694 58.6049 60.9755 58.0755 60.9755 57.3767C60.9755 56.9146 60.9272 56.5263 60.8306 56.2119C60.734 55.8975 60.5977 55.6608 60.4215 55.5017C60.2454 55.3407 60.0371 55.2602 59.7965 55.2602C59.4348 55.2602 59.1488 55.4401 58.9386 55.8C58.7283 56.1579 58.6223 56.6835 58.6204 57.3767C58.6185 57.8407 58.6649 58.2308 58.7596 58.5471C58.8562 58.8634 58.9925 59.1021 59.1687 59.263C59.3448 59.4221 59.5541 59.5017 59.7965 59.5017ZM65.1325 60.3909C64.6647 60.3909 64.2631 60.2725 63.9279 60.0358C63.5946 59.7971 63.3379 59.4534 63.158 59.0045C62.98 58.5538 62.891 58.0112 62.891 57.3767C62.8929 56.7422 62.9828 56.2024 63.1609 55.7574C63.3408 55.3104 63.5974 54.9695 63.9308 54.7346C64.266 54.4998 64.6665 54.3824 65.1325 54.3824C65.5984 54.3824 65.9989 54.4998 66.3342 54.7346C66.6694 54.9695 66.926 55.3104 67.104 55.7574C67.284 56.2043 67.3739 56.7441 67.3739 57.3767C67.3739 58.013 67.284 58.5566 67.104 59.0074C66.926 59.4562 66.6694 59.799 66.3342 60.0358C66.0008 60.2725 65.6003 60.3909 65.1325 60.3909ZM65.1325 59.5017C65.4961 59.5017 65.783 59.3227 65.9933 58.9647C66.2054 58.6049 66.3114 58.0755 66.3114 57.3767C66.3114 56.9146 66.2631 56.5263 66.1665 56.2119C66.07 55.8975 65.9336 55.6608 65.7575 55.5017C65.5813 55.3407 65.373 55.2602 65.1325 55.2602C64.7707 55.2602 64.4847 55.4401 64.2745 55.8C64.0643 56.1579 63.9582 56.6835 63.9563 57.3767C63.9544 57.8407 64.0008 58.2308 64.0955 58.5471C64.1921 58.8634 64.3285 59.1021 64.5046 59.263C64.6808 59.4221 64.89 59.5017 65.1325 59.5017Z" fill="#3F3F3F"/>
<path d="M216.401 55.9431H215.205C215.171 55.7471 215.108 55.5734 215.017 55.4221C214.925 55.2687 214.811 55.1388 214.675 55.0322C214.538 54.9257 214.383 54.8458 214.208 54.7925C214.036 54.7371 213.849 54.7094 213.649 54.7094C213.293 54.7094 212.978 54.7989 212.703 54.9779C212.428 55.1547 212.213 55.4147 212.057 55.7577C211.902 56.0986 211.824 56.5152 211.824 57.0074C211.824 57.5081 211.902 57.9299 212.057 58.273C212.215 58.6139 212.43 58.8717 212.703 59.0464C212.978 59.219 213.292 59.3053 213.646 59.3053C213.842 59.3053 214.025 59.2797 214.195 59.2286C214.368 59.1753 214.522 59.0976 214.659 58.9953C214.797 58.893 214.913 58.7673 215.007 58.6182C215.103 58.469 215.169 58.2986 215.205 58.1068L216.401 58.1132C216.356 58.4243 216.259 58.7162 216.11 58.9889C215.963 59.2616 215.77 59.5024 215.531 59.7112C215.293 59.9179 215.013 60.0798 214.694 60.197C214.374 60.3121 214.02 60.3696 213.63 60.3696C213.054 60.3696 212.541 60.2364 212.089 59.9701C211.637 59.7037 211.282 59.3192 211.022 58.8163C210.762 58.3135 210.632 57.7105 210.632 57.0074C210.632 56.3021 210.763 55.6991 211.025 55.1984C211.287 54.6956 211.644 54.311 212.096 54.0446C212.547 53.7783 213.059 53.6451 213.63 53.6451C213.994 53.6451 214.333 53.6963 214.646 53.7986C214.959 53.9008 215.238 54.051 215.483 54.2492C215.728 54.4452 215.93 54.686 216.087 54.9715C216.247 55.2549 216.352 55.5787 216.401 55.9431ZM219.577 60.376C219.097 60.376 218.682 60.2705 218.33 60.0596C217.979 59.8486 217.706 59.5535 217.512 59.1743C217.32 58.795 217.224 58.3518 217.224 57.8447C217.224 57.3376 217.32 56.8934 217.512 56.512C217.706 56.1306 217.979 55.8344 218.33 55.6235C218.682 55.4125 219.097 55.3071 219.577 55.3071C220.056 55.3071 220.472 55.4125 220.823 55.6235C221.175 55.8344 221.446 56.1306 221.638 56.512C221.832 56.8934 221.929 57.3376 221.929 57.8447C221.929 58.3518 221.832 58.795 221.638 59.1743C221.446 59.5535 221.175 59.8486 220.823 60.0596C220.472 60.2705 220.056 60.376 219.577 60.376ZM219.583 59.4491C219.843 59.4491 220.06 59.3777 220.235 59.235C220.41 59.0901 220.54 58.8962 220.625 58.6533C220.712 58.4104 220.756 58.1398 220.756 57.8415C220.756 57.5411 220.712 57.2694 220.625 57.0265C220.54 56.7815 220.41 56.5866 220.235 56.4417C220.06 56.2968 219.843 56.2243 219.583 56.2243C219.317 56.2243 219.095 56.2968 218.918 56.4417C218.744 56.5866 218.612 56.7815 218.525 57.0265C218.44 57.2694 218.397 57.5411 218.397 57.8415C218.397 58.1398 218.44 58.4104 218.525 58.6533C218.612 58.8962 218.744 59.0901 218.918 59.235C219.095 59.3777 219.317 59.4491 219.583 59.4491ZM226.04 58.2155V55.371H227.197V60.2801H226.075V59.4076H226.024C225.913 59.6824 225.731 59.9072 225.477 60.0819C225.226 60.2567 224.916 60.344 224.547 60.344C224.225 60.344 223.941 60.2726 223.694 60.1299C223.449 59.985 223.257 59.7751 223.119 59.5003C222.98 59.2233 222.911 58.8888 222.911 58.4967V55.371H224.068V58.3177C224.068 58.6288 224.153 58.876 224.324 59.0592C224.494 59.2424 224.718 59.3341 224.995 59.3341C225.165 59.3341 225.33 59.2925 225.49 59.2094C225.65 59.1263 225.781 59.0027 225.883 58.8387C225.988 58.6725 226.04 58.4647 226.04 58.2155ZM228.386 62.121V55.371H229.524V56.1828H229.591C229.651 56.0635 229.735 55.9367 229.844 55.8025C229.953 55.6661 230.1 55.55 230.285 55.4541C230.47 55.3561 230.707 55.3071 230.994 55.3071C231.374 55.3071 231.716 55.404 232.02 55.5979C232.327 55.7897 232.57 56.0741 232.749 56.4513C232.93 56.8263 233.021 57.2865 233.021 57.8319C233.021 58.371 232.932 58.8291 232.755 59.2062C232.579 59.5834 232.338 59.871 232.033 60.0692C231.728 60.2673 231.383 60.3664 230.998 60.3664C230.716 60.3664 230.483 60.3195 230.298 60.2258C230.112 60.132 229.963 60.0191 229.85 59.887C229.739 59.7527 229.653 59.626 229.591 59.5067H229.543V62.121H228.386ZM229.521 57.8255C229.521 58.143 229.566 58.4211 229.655 58.6597C229.747 58.8983 229.878 59.0848 230.048 59.219C230.221 59.3511 230.43 59.4172 230.675 59.4172C230.93 59.4172 231.145 59.349 231.317 59.2126C231.49 59.0741 231.62 58.8856 231.707 58.6469C231.797 58.4062 231.841 58.1324 231.841 57.8255C231.841 57.5209 231.798 57.2503 231.71 57.0138C231.623 56.7772 231.493 56.5919 231.32 56.4576C231.148 56.3234 230.933 56.2563 230.675 56.2563C230.428 56.2563 230.218 56.3213 230.045 56.4513C229.873 56.5812 229.742 56.7634 229.652 56.9978C229.565 57.2321 229.521 57.5081 229.521 57.8255ZM236.153 60.376C235.673 60.376 235.258 60.2705 234.906 60.0596C234.555 59.8486 234.282 59.5535 234.088 59.1743C233.896 58.795 233.801 58.3518 233.801 57.8447C233.801 57.3376 233.896 56.8934 234.088 56.512C234.282 56.1306 234.555 55.8344 234.906 55.6235C235.258 55.4125 235.673 55.3071 236.153 55.3071C236.632 55.3071 237.048 55.4125 237.399 55.6235C237.751 55.8344 238.022 56.1306 238.214 56.512C238.408 56.8934 238.505 57.3376 238.505 57.8447C238.505 58.3518 238.408 58.795 238.214 59.1743C238.022 59.5535 237.751 59.8486 237.399 60.0596C237.048 60.2705 236.632 60.376 236.153 60.376ZM236.159 59.4491C236.419 59.4491 236.636 59.3777 236.811 59.235C236.986 59.0901 237.116 58.8962 237.201 58.6533C237.288 58.4104 237.332 58.1398 237.332 57.8415C237.332 57.5411 237.288 57.2694 237.201 57.0265C237.116 56.7815 236.986 56.5866 236.811 56.4417C236.636 56.2968 236.419 56.2243 236.159 56.2243C235.893 56.2243 235.671 56.2968 235.494 56.4417C235.32 56.5866 235.189 56.7815 235.101 57.0265C235.016 57.2694 234.973 57.5411 234.973 57.8415C234.973 58.1398 235.016 58.4104 235.101 58.6533C235.189 58.8962 235.32 59.0901 235.494 59.235C235.671 59.3777 235.893 59.4491 236.159 59.4491ZM240.644 57.4037V60.2801H239.487V55.371H240.593V56.2052H240.65C240.763 55.9303 240.943 55.7119 241.191 55.55C241.44 55.388 241.748 55.3071 242.114 55.3071C242.453 55.3071 242.748 55.3795 242.999 55.5244C243.253 55.6693 243.449 55.8792 243.588 56.154C243.728 56.4289 243.797 56.7623 243.795 57.1544V60.2801H242.638V57.3334C242.638 57.0052 242.553 56.7485 242.383 56.5631C242.214 56.3777 241.981 56.2851 241.683 56.2851C241.48 56.2851 241.3 56.3298 241.143 56.4193C240.987 56.5067 240.865 56.6334 240.775 56.7996C240.688 56.9658 240.644 57.1672 240.644 57.4037ZM247.255 60.2801V53.7346H251.512V54.7286H248.441V56.5056H251.292V57.4996H248.441V59.2861H251.538V60.2801H247.255ZM253.617 55.371L254.607 57.1831L255.614 55.371H256.838L255.358 57.8255L256.864 60.2801H255.646L254.607 58.5127L253.578 60.2801H252.351L253.847 57.8255L252.389 55.371H253.617ZM257.733 62.121V55.371H258.871V56.1828H258.938C258.998 56.0635 259.082 55.9367 259.191 55.8025C259.299 55.6661 259.446 55.55 259.632 55.4541C259.817 55.3561 260.053 55.3071 260.341 55.3071C260.72 55.3071 261.062 55.404 261.367 55.5979C261.674 55.7897 261.917 56.0741 262.096 56.4513C262.277 56.8263 262.367 57.2865 262.367 57.8319C262.367 58.371 262.279 58.8291 262.102 59.2062C261.925 59.5834 261.684 59.871 261.38 60.0692C261.075 60.2673 260.73 60.3664 260.344 60.3664C260.063 60.3664 259.83 60.3195 259.644 60.2258C259.459 60.132 259.31 60.0191 259.197 59.887C259.086 59.7527 259 59.626 258.938 59.5067H258.89V62.121H257.733ZM258.868 57.8255C258.868 58.143 258.912 58.4211 259.002 58.6597C259.094 58.8983 259.225 59.0848 259.395 59.219C259.568 59.3511 259.776 59.4172 260.021 59.4172C260.277 59.4172 260.491 59.349 260.664 59.2126C260.836 59.0741 260.966 58.8856 261.054 58.6469C261.143 58.4062 261.188 58.1324 261.188 57.8255C261.188 57.5209 261.144 57.2503 261.057 57.0138C260.97 56.7772 260.84 56.5919 260.667 56.4576C260.494 56.3234 260.279 56.2563 260.021 56.2563C259.774 56.2563 259.564 56.3213 259.392 56.4513C259.219 56.5812 259.088 56.7634 258.999 56.9978C258.911 57.2321 258.868 57.5081 258.868 57.8255ZM263.358 60.2801V55.371H264.515V60.2801H263.358ZM263.94 54.6743C263.757 54.6743 263.599 54.6135 263.467 54.4921C263.335 54.3685 263.269 54.2204 263.269 54.0478C263.269 53.8731 263.335 53.725 263.467 53.6036C263.599 53.48 263.757 53.4182 263.94 53.4182C264.125 53.4182 264.283 53.48 264.413 53.6036C264.545 53.725 264.611 53.8731 264.611 54.0478C264.611 54.2204 264.545 54.3685 264.413 54.4921C264.283 54.6135 264.125 54.6743 263.94 54.6743ZM265.705 60.2801V55.371H266.827V56.1892H266.878C266.967 55.9058 267.121 55.6874 267.338 55.534C267.557 55.3785 267.808 55.3007 268.089 55.3007C268.153 55.3007 268.224 55.3039 268.303 55.3103C268.384 55.3145 268.451 55.322 268.505 55.3326V56.3969C268.456 56.3799 268.378 56.365 268.271 56.3522C268.167 56.3373 268.066 56.3298 267.968 56.3298C267.757 56.3298 267.567 56.3756 267.399 56.4672C267.233 56.5567 267.101 56.6814 267.006 56.8412C266.91 57.001 266.862 57.1853 266.862 57.3941V60.2801H265.705ZM271.244 60.376C270.752 60.376 270.327 60.2737 269.969 60.0692C269.613 59.8625 269.339 59.5706 269.148 59.1934C268.956 58.8142 268.86 58.3678 268.86 57.8543C268.86 57.3493 268.956 56.9062 269.148 56.5248C269.342 56.1412 269.612 55.8429 269.96 55.6299C270.307 55.4147 270.715 55.3071 271.184 55.3071C271.486 55.3071 271.772 55.3561 272.04 55.4541C272.311 55.55 272.549 55.6991 272.756 55.9015C272.965 56.104 273.129 56.3618 273.248 56.675C273.368 56.9861 273.427 57.3568 273.427 57.7872V58.142H269.403V57.3621H272.318C272.316 57.1405 272.268 56.9434 272.174 56.7709C272.081 56.5961 271.95 56.4587 271.781 56.3586C271.615 56.2584 271.421 56.2084 271.2 56.2084C270.963 56.2084 270.755 56.2659 270.576 56.3809C270.397 56.4939 270.258 56.643 270.158 56.8284C270.06 57.0116 270.01 57.213 270.007 57.4324V58.1132C270.007 58.3987 270.06 58.6437 270.164 58.8483C270.268 59.0507 270.414 59.2062 270.602 59.3149C270.789 59.4214 271.009 59.4747 271.26 59.4747C271.429 59.4747 271.581 59.4513 271.717 59.4044C271.854 59.3554 271.972 59.284 272.072 59.1902C272.172 59.0965 272.248 58.9804 272.299 58.8419L273.379 58.9633C273.311 59.2488 273.181 59.4981 272.989 59.7112C272.8 59.9221 272.557 60.0862 272.261 60.2034C271.964 60.3184 271.626 60.376 271.244 60.376ZM278.286 56.6686L277.231 56.7836C277.201 56.6771 277.149 56.577 277.075 56.4832C277.002 56.3895 276.904 56.3138 276.781 56.2563C276.657 56.1988 276.506 56.17 276.327 56.17C276.086 56.17 275.884 56.2222 275.72 56.3266C275.558 56.431 275.478 56.5663 275.48 56.7325C275.478 56.8753 275.53 56.9914 275.636 57.0809C275.745 57.1704 275.924 57.2439 276.173 57.3014L277.011 57.4804C277.475 57.5805 277.82 57.7393 278.046 57.9566C278.274 58.1739 278.389 58.4584 278.391 58.8099C278.389 59.1189 278.299 59.3916 278.12 59.6281C277.943 59.8625 277.697 60.0457 277.381 60.1778C277.066 60.3099 276.704 60.376 276.295 60.376C275.694 60.376 275.21 60.2503 274.844 59.9988C274.477 59.7453 274.259 59.3927 274.189 58.941L275.317 58.8323C275.368 59.0539 275.477 59.2211 275.643 59.3341C275.809 59.447 276.025 59.5035 276.292 59.5035C276.566 59.5035 276.787 59.447 276.953 59.3341C277.122 59.2211 277.206 59.0816 277.206 58.9154C277.206 58.7748 277.151 58.6586 277.043 58.567C276.936 58.4754 276.77 58.4051 276.544 58.3561L275.707 58.1803C275.236 58.0823 274.888 57.9172 274.662 57.6849C274.436 57.4505 274.324 57.1544 274.326 56.7964C274.324 56.4939 274.406 56.2318 274.572 56.0102C274.741 55.7865 274.974 55.6139 275.272 55.4924C275.573 55.3689 275.919 55.3071 276.311 55.3071C276.886 55.3071 277.339 55.4296 277.669 55.6746C278.002 55.9196 278.207 56.251 278.286 56.6686ZM283.984 60.4047C283.458 60.4047 283.006 60.2716 282.629 60.0052C282.254 59.7368 281.966 59.35 281.763 58.8451C281.563 58.338 281.463 57.7275 281.463 57.0138C281.465 56.3 281.566 55.6927 281.766 55.192C281.969 54.6892 282.258 54.3057 282.633 54.0415C283.01 53.7772 283.46 53.6451 283.984 53.6451C284.509 53.6451 284.959 53.7772 285.336 54.0415C285.714 54.3057 286.002 54.6892 286.203 55.192C286.405 55.6949 286.506 56.3021 286.506 57.0138C286.506 57.7297 286.405 58.3412 286.203 58.8483C286.002 59.3532 285.714 59.7389 285.336 60.0052C284.961 60.2716 284.511 60.4047 283.984 60.4047ZM283.984 59.4044C284.394 59.4044 284.716 59.203 284.953 58.8003C285.191 58.3955 285.311 57.8 285.311 57.0138C285.311 56.4939 285.256 56.0571 285.148 55.7034C285.039 55.3497 284.886 55.0834 284.688 54.9044C284.489 54.7233 284.255 54.6327 283.984 54.6327C283.578 54.6327 283.256 54.8351 283.019 55.24C282.783 55.6427 282.663 56.2339 282.661 57.0138C282.659 57.5358 282.711 57.9747 282.818 58.3305C282.927 58.6863 283.08 58.9548 283.278 59.1359C283.476 59.3149 283.712 59.4044 283.984 59.4044ZM290.23 53.7346V60.2801H289.045V54.8884H289.006L287.475 55.8664V54.7797L289.102 53.7346H290.23ZM294.577 53.4278L292.468 61.2645H291.454L293.564 53.4278H294.577ZM297.722 60.4047C297.195 60.4047 296.744 60.2716 296.367 60.0052C295.992 59.7368 295.703 59.35 295.501 58.8451C295.3 58.338 295.2 57.7275 295.2 57.0138C295.202 56.3 295.303 55.6927 295.504 55.192C295.706 54.6892 295.995 54.3057 296.37 54.0415C296.747 53.7772 297.198 53.6451 297.722 53.6451C298.246 53.6451 298.697 53.7772 299.074 54.0415C299.451 54.3057 299.74 54.6892 299.94 55.192C300.142 55.6949 300.243 56.3021 300.243 57.0138C300.243 57.7297 300.142 58.3412 299.94 58.8483C299.74 59.3532 299.451 59.7389 299.074 60.0052C298.699 60.2716 298.248 60.4047 297.722 60.4047ZM297.722 59.4044C298.131 59.4044 298.454 59.203 298.69 58.8003C298.929 58.3955 299.048 57.8 299.048 57.0138C299.048 56.4939 298.994 56.0571 298.885 55.7034C298.776 55.3497 298.623 55.0834 298.425 54.9044C298.227 54.7233 297.992 54.6327 297.722 54.6327C297.315 54.6327 296.993 54.8351 296.757 55.24C296.52 55.6427 296.401 56.2339 296.399 57.0138C296.396 57.5358 296.449 57.9747 296.555 58.3305C296.664 58.6863 296.817 58.9548 297.015 59.1359C297.214 59.3149 297.449 59.4044 297.722 59.4044ZM303.654 60.3696C303.194 60.3696 302.785 60.2907 302.427 60.1331C302.071 59.9754 301.79 59.7559 301.583 59.4747C301.377 59.1934 301.267 58.8685 301.254 58.4999H302.456C302.467 58.6768 302.525 58.8312 302.632 58.9633C302.738 59.0933 302.88 59.1945 303.057 59.267C303.234 59.3394 303.432 59.3756 303.651 59.3756C303.886 59.3756 304.093 59.3351 304.274 59.2542C304.456 59.1711 304.597 59.056 304.699 58.909C304.802 58.762 304.852 58.5926 304.85 58.4008C304.852 58.2027 304.801 58.028 304.696 57.8767C304.592 57.7254 304.441 57.6071 304.242 57.5219C304.046 57.4367 303.81 57.3941 303.533 57.3941H302.954V56.48H303.533C303.761 56.48 303.96 56.4406 304.131 56.3618C304.303 56.2829 304.438 56.1721 304.536 56.0294C304.634 55.8845 304.682 55.7172 304.68 55.5276C304.682 55.3422 304.641 55.1814 304.556 55.045C304.473 54.9065 304.354 54.7989 304.201 54.7222C304.05 54.6455 303.872 54.6071 303.667 54.6071C303.467 54.6071 303.282 54.6434 303.111 54.7158C302.941 54.7883 302.803 54.8916 302.699 55.0258C302.594 55.1579 302.539 55.3156 302.533 55.4988H301.392C301.4 55.1324 301.506 54.8106 301.708 54.5336C301.913 54.2545 302.185 54.0372 302.526 53.8817C302.867 53.724 303.25 53.6451 303.674 53.6451C304.11 53.6451 304.49 53.7272 304.811 53.8912C305.135 54.0532 305.386 54.2716 305.562 54.5464C305.739 54.8213 305.828 55.1249 305.828 55.4573C305.83 55.8259 305.721 56.1348 305.502 56.3841C305.284 56.6334 304.999 56.7964 304.645 56.8731V56.9243C305.105 56.9882 305.458 57.1586 305.703 57.4356C305.95 57.7105 306.073 58.0525 306.071 58.4616C306.071 58.828 305.966 59.1562 305.757 59.4459C305.551 59.7336 305.265 59.9594 304.901 60.1235C304.539 60.2875 304.123 60.3696 303.654 60.3696Z" fill="#3F3F3F"/>
<path d="M28.0238 82.5449V72.363H34.646V73.9092H29.8683V76.6734H34.3029V78.2196H29.8683V80.9987H34.6857V82.5449H28.0238ZM38.2479 78.0704V82.5449H36.4482V74.9085H38.1683V76.2061H38.2578C38.4335 75.7785 38.7135 75.4388 39.098 75.1869C39.4858 74.935 39.9647 74.8091 40.5348 74.8091C41.0618 74.8091 41.5208 74.9218 41.9119 75.1471C42.3063 75.3725 42.6113 75.699 42.8267 76.1265C43.0455 76.5541 43.1532 77.0728 43.1499 77.6826V82.5449H41.3501V77.9611C41.3501 77.4506 41.2176 77.0513 40.9524 76.7629C40.6906 76.4745 40.3277 76.3304 39.8636 76.3304C39.5488 76.3304 39.2687 76.4 39.0234 76.5392C38.7815 76.6751 38.5909 76.8723 38.4517 77.1308C38.3158 77.3893 38.2479 77.7025 38.2479 78.0704ZM47.8132 82.6791C47.2133 82.6791 46.6764 82.525 46.2024 82.2167C45.7285 81.9085 45.3539 81.4611 45.0788 80.8744C44.8037 80.2878 44.6662 79.5752 44.6662 78.7366C44.6662 77.8881 44.8054 77.1722 45.0838 76.5889C45.3655 76.0022 45.745 75.5598 46.2223 75.2615C46.6996 74.9599 47.2315 74.8091 47.8182 74.8091C48.2656 74.8091 48.6335 74.8853 48.9219 75.0378C49.2102 75.1869 49.4389 75.3675 49.608 75.5797C49.777 75.7885 49.9079 75.9857 50.0007 76.1713H50.0753V72.363H51.88V82.5449H50.1101V81.3417H50.0007C49.9079 81.5273 49.7737 81.7245 49.598 81.9334C49.4223 82.1388 49.1903 82.3145 48.902 82.4603C48.6136 82.6062 48.2507 82.6791 47.8132 82.6791ZM48.3153 81.2025C48.6965 81.2025 49.0213 81.0998 49.2898 80.8943C49.5582 80.6855 49.7621 80.3955 49.9013 80.0243C50.0405 79.6531 50.1101 79.2205 50.1101 78.7267C50.1101 78.2328 50.0405 77.8036 49.9013 77.439C49.7654 77.0745 49.5632 76.7911 49.2947 76.5889C49.0296 76.3867 48.7031 76.2856 48.3153 76.2856C47.9143 76.2856 47.5795 76.39 47.3111 76.5988C47.0426 76.8076 46.8404 77.096 46.7045 77.4639C46.5687 77.8318 46.5007 78.2527 46.5007 78.7267C46.5007 79.204 46.5687 79.6299 46.7045 80.0044C46.8438 80.3756 47.0476 80.6689 47.3161 80.8843C47.5878 81.0965 47.9209 81.2025 48.3153 81.2025ZM66.448 77.454C66.448 78.551 66.2425 79.4906 65.8315 80.2728C65.4238 81.0517 64.867 81.6483 64.161 82.0626C63.4584 82.4769 62.6613 82.6841 61.7697 82.6841C60.8781 82.6841 60.0794 82.4769 59.3734 82.0626C58.6708 81.645 58.1139 81.0468 57.7029 80.2679C57.2953 79.4857 57.0914 78.5477 57.0914 77.454C57.0914 76.3569 57.2953 75.4189 57.7029 74.64C58.1139 73.8578 58.6708 73.2596 59.3734 72.8453C60.0794 72.431 60.8781 72.2238 61.7697 72.2238C62.6613 72.2238 63.4584 72.431 64.161 72.8453C64.867 73.2596 65.4238 73.8578 65.8315 74.64C66.2425 75.4189 66.448 76.3569 66.448 77.454ZM64.5936 77.454C64.5936 76.6817 64.4726 76.0304 64.2306 75.5001C63.992 74.9665 63.6606 74.5638 63.2363 74.292C62.8121 74.0169 62.3232 73.8794 61.7697 73.8794C61.2162 73.8794 60.7273 74.0169 60.3031 74.292C59.8788 74.5638 59.5458 74.9665 59.3038 75.5001C59.0652 76.0304 58.9458 76.6817 58.9458 77.454C58.9458 78.2262 59.0652 78.8791 59.3038 79.4128C59.5458 79.9431 59.8788 80.3458 60.3031 80.6209C60.7273 80.8926 61.2162 81.0285 61.7697 81.0285C62.3232 81.0285 62.8121 80.8926 63.2363 80.6209C63.6606 80.3458 63.992 79.9431 64.2306 79.4128C64.4726 78.8791 64.5936 78.2262 64.5936 77.454ZM71.9801 74.9085V76.3005H67.4659V74.9085H71.9801ZM68.5945 82.5449V74.1876C68.5945 73.6739 68.7005 73.2463 68.9126 72.9049C69.1281 72.5636 69.4164 72.3084 69.7777 72.1393C70.139 71.9703 70.54 71.8858 70.9808 71.8858C71.2924 71.8858 71.5691 71.9106 71.8111 71.9603C72.053 72.0101 72.232 72.0548 72.348 72.0946L71.9901 73.4866C71.9138 73.4634 71.8177 73.4402 71.7017 73.417C71.5857 73.3905 71.4564 73.3772 71.3139 73.3772C70.9792 73.3772 70.7422 73.4584 70.603 73.6209C70.4671 73.7799 70.3991 74.0086 70.3991 74.3069V82.5449H68.5945ZM85.3089 72.363V82.5449H83.6683L78.8707 75.6095H78.7862V82.5449H76.9418V72.363H78.5923L83.3849 79.3034H83.4744V72.363H85.3089ZM90.6199 82.694C89.8542 82.694 89.193 82.5349 88.6362 82.2167C88.0827 81.8952 87.6568 81.4412 87.3585 80.8545C87.0602 80.2646 86.911 79.5702 86.911 78.7714C86.911 77.9859 87.0602 77.2965 87.3585 76.7032C87.6601 76.1067 88.081 75.6426 88.6213 75.3112C89.1615 74.9764 89.7962 74.8091 90.5254 74.8091C90.996 74.8091 91.4402 74.8853 91.8578 75.0378C92.2787 75.1869 92.6499 75.4189 92.9714 75.7338C93.2962 76.0486 93.5514 76.4497 93.737 76.9369C93.9226 77.4208 94.0154 77.9975 94.0154 78.667V79.2189H87.7562V78.0058H92.2903C92.287 77.6611 92.2124 77.3545 92.0666 77.0861C91.9208 76.8143 91.7169 76.6005 91.4551 76.4447C91.1966 76.2889 90.8949 76.2111 90.5502 76.2111C90.1824 76.2111 89.8592 76.3005 89.5808 76.4795C89.3024 76.6552 89.0853 76.8872 88.9295 77.1755C88.777 77.4606 88.6992 77.7738 88.6958 78.1152V79.1741C88.6958 79.6183 88.777 79.9994 88.9395 80.3176C89.1019 80.6325 89.3289 80.8744 89.6206 81.0434C89.9122 81.2092 90.2536 81.292 90.6447 81.292C90.9065 81.292 91.1435 81.2556 91.3556 81.1826C91.5678 81.1064 91.7517 80.9954 91.9075 80.8495C92.0633 80.7037 92.1809 80.5231 92.2605 80.3076L93.9409 80.4966C93.8348 80.9407 93.6326 81.3285 93.3343 81.6599C93.0394 81.988 92.6615 82.2433 92.2008 82.4255C91.7401 82.6045 91.2131 82.694 90.6199 82.694ZM97.073 82.5449L94.9153 74.9085H96.7498L98.0922 80.2778H98.1618L99.5339 74.9085H101.349L102.721 80.248H102.795L104.118 74.9085H105.957L103.795 82.5449H101.92L100.488 77.3843H100.384L98.9522 82.5449H97.073ZM110.07 72.363H112.153L114.644 76.8673H114.743L117.234 72.363H119.317L115.613 78.7466V82.5449H113.774V78.7466L110.07 72.363ZM122.503 82.694C121.737 82.694 121.076 82.5349 120.519 82.2167C119.965 81.8952 119.54 81.4412 119.241 80.8545C118.943 80.2646 118.794 79.5702 118.794 78.7714C118.794 77.9859 118.943 77.2965 119.241 76.7032C119.543 76.1067 119.964 75.6426 120.504 75.3112C121.044 74.9764 121.679 74.8091 122.408 74.8091C122.879 74.8091 123.323 74.8853 123.741 75.0378C124.162 75.1869 124.533 75.4189 124.854 75.7338C125.179 76.0486 125.434 76.4497 125.62 76.9369C125.805 77.4208 125.898 77.9975 125.898 78.667V79.2189H119.639V78.0058H124.173C124.17 77.6611 124.095 77.3545 123.949 77.0861C123.804 76.8143 123.6 76.6005 123.338 76.4447C123.079 76.2889 122.778 76.2111 122.433 76.2111C122.065 76.2111 121.742 76.3005 121.464 76.4795C121.185 76.6552 120.968 76.8872 120.812 77.1755C120.66 77.4606 120.582 77.7738 120.579 78.1152V79.1741C120.579 79.6183 120.66 79.9994 120.822 80.3176C120.985 80.6325 121.212 80.8744 121.503 81.0434C121.795 81.2092 122.136 81.292 122.528 81.292C122.789 81.292 123.026 81.2556 123.238 81.1826C123.451 81.1064 123.635 80.9954 123.79 80.8495C123.946 80.7037 124.064 80.5231 124.143 80.3076L125.824 80.4966C125.718 80.9407 125.515 81.3285 125.217 81.6599C124.922 81.988 124.544 82.2433 124.084 82.4255C123.623 82.6045 123.096 82.694 122.503 82.694ZM129.618 82.699C129.134 82.699 128.699 82.6128 128.311 82.4405C127.926 82.2648 127.621 82.0063 127.396 81.6649C127.174 81.3235 127.063 80.9026 127.063 80.4021C127.063 79.9712 127.142 79.6149 127.301 79.3332C127.461 79.0515 127.678 78.8261 127.953 78.6571C128.228 78.488 128.538 78.3604 128.882 78.2743C129.23 78.1848 129.59 78.1201 129.961 78.0804C130.409 78.034 130.772 77.9925 131.05 77.9561C131.328 77.9163 131.531 77.8567 131.657 77.7771C131.786 77.6942 131.85 77.5666 131.85 77.3943V77.3645C131.85 76.9899 131.739 76.6999 131.517 76.4944C131.295 76.2889 130.975 76.1862 130.558 76.1862C130.117 76.1862 129.767 76.2823 129.509 76.4745C129.254 76.6668 129.081 76.8938 128.992 77.1557L127.311 76.917C127.444 76.453 127.663 76.0652 127.968 75.7537C128.273 75.4388 128.645 75.2035 129.086 75.0477C129.527 74.8886 130.014 74.8091 130.548 74.8091C130.916 74.8091 131.282 74.8522 131.647 74.9383C132.011 75.0245 132.344 75.167 132.646 75.3659C132.948 75.5614 133.19 75.8282 133.372 76.1663C133.557 76.5044 133.65 76.927 133.65 77.4341V82.5449H131.92V81.4959H131.86C131.751 81.708 131.597 81.9068 131.398 82.0924C131.203 82.2747 130.956 82.4222 130.657 82.5349C130.362 82.6443 130.016 82.699 129.618 82.699ZM130.086 81.3765C130.447 81.3765 130.76 81.3053 131.025 81.1628C131.29 81.0169 131.494 80.8247 131.637 80.5861C131.783 80.3474 131.855 80.0872 131.855 79.8055V78.9057C131.799 78.9521 131.703 78.9951 131.567 79.0349C131.435 79.0747 131.285 79.1095 131.12 79.1393C130.954 79.1692 130.79 79.1957 130.627 79.2189C130.465 79.2421 130.324 79.262 130.205 79.2785C129.936 79.315 129.696 79.3746 129.484 79.4575C129.272 79.5404 129.105 79.6564 128.982 79.8055C128.859 79.9513 128.798 80.1403 128.798 80.3723C128.798 80.7037 128.919 80.954 129.161 81.123C129.403 81.292 129.711 81.3765 130.086 81.3765ZM135.46 82.5449V74.9085H137.205V76.1812H137.284C137.424 75.7404 137.662 75.4007 138 75.162C138.342 74.9201 138.731 74.7991 139.169 74.7991C139.268 74.7991 139.379 74.8041 139.502 74.814C139.628 74.8207 139.732 74.8323 139.815 74.8488V76.5044C139.739 76.4779 139.618 76.4547 139.452 76.4348C139.29 76.4116 139.132 76.4 138.98 76.4C138.652 76.4 138.357 76.4712 138.095 76.6138C137.836 76.753 137.632 76.9468 137.483 77.1954C137.334 77.444 137.26 77.7307 137.26 78.0555V82.5449H135.46Z" fill="white"/>
<path d="M327.615 25.7063C333.291 25.7063 337.935 21.0623 337.935 15.3862C337.935 9.71023 333.291 5.06622 327.615 5.06622C321.939 5.06622 317.295 9.71023 317.295 15.3862C317.295 21.0623 321.939 25.7063 327.615 25.7063Z" stroke="white" stroke-width="1.5" stroke-linecap="round" stroke-linejoin="round"/>
<path d="M324.693 18.3068L330.534 12.4656" stroke="white" stroke-width="1.5" stroke-linecap="round" stroke-linejoin="round"/>
<path d="M330.534 18.3068L324.693 12.4656" stroke="white" stroke-width="1.5" stroke-linecap="round" stroke-linejoin="round"/>
</svg>
