<svg width="19" height="19" viewBox="0 0 19 19" fill="none" xmlns="http://www.w3.org/2000/svg">
<path d="M14.283 10.7274C13.9505 11.052 13.7605 11.5191 13.808 12.0178C13.8792 12.8728 14.663 13.4982 15.518 13.4982H17.0221V14.4403C17.0221 16.0791 15.6842 17.417 14.0455 17.417H4.95714C3.31839 17.417 1.98047 16.0791 1.98047 14.4403V9.11242C1.98047 7.47367 3.31839 6.13574 4.95714 6.13574H14.0455C15.6842 6.13574 17.0221 7.47367 17.0221 9.11242V10.2524H15.423C14.9796 10.2524 14.5759 10.4266 14.283 10.7274Z" stroke="#299D91" stroke-width="1.5" stroke-linecap="round" stroke-linejoin="round"/>
<path d="M1.98047 9.82429V6.20641C1.98047 5.26433 2.55839 4.42513 3.43714 4.09263L9.72297 1.71763C10.7046 1.34555 11.7576 2.0739 11.7576 3.12682V6.13514" stroke="#299D91" stroke-width="1.5" stroke-linecap="round" stroke-linejoin="round"/>
<path d="M17.8594 11.0594V12.6903C17.8594 13.1257 17.5111 13.4819 17.0677 13.4978H15.5161C14.6611 13.4978 13.8773 12.8724 13.8061 12.0174C13.7586 11.5186 13.9486 11.0515 14.2811 10.7269C14.574 10.4261 14.9777 10.252 15.4211 10.252H17.0677C17.5111 10.2678 17.8594 10.624 17.8594 11.0594Z" stroke="#299D91" stroke-width="1.5" stroke-linecap="round" stroke-linejoin="round"/>
<path d="M5.54102 9.5H11.0827" stroke="#299D91" stroke-width="1.5" stroke-linecap="round" stroke-linejoin="round"/>
</svg>
