<svg width="36" height="23" viewBox="0 0 36 23" fill="none" xmlns="http://www.w3.org/2000/svg">
<path d="M6.69673 19.3892V4.15341H10.1534V19.3892H6.69673ZM0.807173 13.4996V10.043H16.043V13.4996H0.807173ZM20.0748 23V20.0497L27.9019 12.3768C28.6505 11.6209 29.2743 10.9493 29.7733 10.3622C30.2724 9.77509 30.6467 9.20632 30.8962 8.65589C31.1457 8.10547 31.2705 7.51835 31.2705 6.89453C31.2705 6.18265 31.109 5.57351 30.7861 5.06712C30.4632 4.55339 30.0192 4.15708 29.4541 3.8782C28.889 3.59931 28.2468 3.45987 27.5276 3.45987C26.7864 3.45987 26.1369 3.61399 25.5791 3.92223C25.0213 4.22313 24.5883 4.65246 24.2801 5.21023C23.9792 5.76799 23.8287 6.43217 23.8287 7.20277H19.9427C19.9427 5.77166 20.2693 4.5277 20.9225 3.47088C21.5757 2.41406 22.4747 1.59576 23.6196 1.01598C24.7718 0.436197 26.0928 0.146306 27.5827 0.146306C29.0945 0.146306 30.4229 0.428858 31.5677 0.993962C32.7126 1.55907 33.6006 2.33333 34.2318 3.31676C34.8703 4.30019 35.1895 5.42306 35.1895 6.68537C35.1895 7.52936 35.0281 8.35866 34.7052 9.17329C34.3823 9.98793 33.8135 10.8906 32.9988 11.8814C32.1916 12.8722 31.0577 14.0721 29.5972 15.4812L25.7112 19.4332V19.5874H35.5308V23H20.0748Z" fill="white"/>
</svg>
