<svg width="24" height="24" viewBox="0 0 24 24" fill="none" xmlns="http://www.w3.org/2000/svg">
<g clip-path="url(#clip0_1_5900)">
<path d="M11.9996 22.8535C12.4195 22.8438 12.8225 22.6859 13.1373 22.4078C13.4521 22.1296 13.6583 21.7491 13.7196 21.3335H10.2129C10.2759 21.7604 10.4918 22.1498 10.8204 22.4294C11.1491 22.709 11.5681 22.8597 11.9996 22.8535Z" fill="#C3C3C3"/>
<path d="M21.8999 18.7536L21.6732 18.5536C21.0302 17.9807 20.4673 17.3236 19.9999 16.6003C19.4894 15.602 19.1834 14.5117 19.0999 13.3936V10.1003C19.0972 9.70023 19.0615 9.3011 18.9932 8.90693C17.8639 8.67482 16.8496 8.05961 16.1219 7.16545C15.3942 6.27129 14.9978 5.15312 14.9999 4.00026V3.58026C14.3038 3.23772 13.556 3.01247 12.7865 2.91359V2.07359C12.7865 1.83755 12.6928 1.61118 12.5259 1.44427C12.359 1.27736 12.1326 1.18359 11.8965 1.18359C11.6605 1.18359 11.4341 1.27736 11.2672 1.44427C11.1003 1.61118 11.0065 1.83755 11.0065 2.07359V2.94693C9.28368 3.18996 7.70692 4.04809 6.56735 5.36288C5.42778 6.67768 4.80236 8.36035 4.80654 10.1003V13.3936C4.72304 14.5117 4.41705 15.602 3.90654 16.6003C3.44712 17.3218 2.89333 17.9788 2.25987 18.5536L2.0332 18.7536V20.6336H21.8999V18.7536Z" fill="#C3C3C3"/>
<path d="M19.9993 7.33317C21.8403 7.33317 23.3327 5.84079 23.3327 3.99984C23.3327 2.15889 21.8403 0.666504 19.9993 0.666504C18.1584 0.666504 16.666 2.15889 16.666 3.99984C16.666 5.84079 18.1584 7.33317 19.9993 7.33317Z" fill="#FF4242"/>
</g>
<defs>
<clipPath id="clip0_1_5900">
<rect width="24" height="24" fill="white"/>
</clipPath>
</defs>
</svg>
