<svg width="41" height="41" viewBox="0 0 41 41" fill="none" xmlns="http://www.w3.org/2000/svg">
<path d="M15.3757 17.0833C17.2626 17.0833 18.7923 15.5536 18.7923 13.6667C18.7923 11.7797 17.2626 10.25 15.3757 10.25C13.4887 10.25 11.959 11.7797 11.959 13.6667C11.959 15.5536 13.4887 17.0833 15.3757 17.0833Z" stroke="#292D32" stroke-width="1.5" stroke-linecap="round" stroke-linejoin="round"/>
<path d="M22.2077 3.4165H15.3743C6.83268 3.4165 3.41602 6.83317 3.41602 15.3748V25.6248C3.41602 34.1665 6.83268 37.5832 15.3743 37.5832H25.6243C34.166 37.5832 37.5827 34.1665 37.5827 25.6248V17.0832" stroke="#292D32" stroke-width="1.5" stroke-linecap="round" stroke-linejoin="round"/>
<path d="M26.9062 8.5415H36.3021" stroke="#292D32" stroke-width="1.5" stroke-linecap="round"/>
<path d="M31.6035 13.2396V3.84375" stroke="#292D32" stroke-width="1.5" stroke-linecap="round"/>
<path d="M4.56055 32.3728L12.9826 26.7182C14.3322 25.8128 16.2797 25.9153 17.4926 26.9574L18.0564 27.4528C19.3889 28.5974 21.5414 28.5974 22.8739 27.4528L29.9805 21.354C31.313 20.2095 33.4655 20.2095 34.798 21.354L37.5826 23.7457" stroke="#292D32" stroke-width="1.5" stroke-linecap="round" stroke-linejoin="round"/>
</svg>
