<svg width="41" height="41" viewBox="0 0 41 41" fill="none" xmlns="http://www.w3.org/2000/svg">
<path d="M15.3749 17.0833C17.2619 17.0833 18.7916 15.5536 18.7916 13.6667C18.7916 11.7797 17.2619 10.25 15.3749 10.25C13.4879 10.25 11.9583 11.7797 11.9583 13.6667C11.9583 15.5536 13.4879 17.0833 15.3749 17.0833Z" stroke="#292D32" stroke-width="1.5" stroke-linecap="round" stroke-linejoin="round"/>
<path d="M22.2084 3.4165H15.3751C6.83341 3.4165 3.41675 6.83317 3.41675 15.3748V25.6248C3.41675 34.1665 6.83341 37.5832 15.3751 37.5832H25.6251C34.1667 37.5832 37.5834 34.1665 37.5834 25.6248V17.0832" stroke="#292D32" stroke-width="1.5" stroke-linecap="round" stroke-linejoin="round"/>
<path d="M28.29 11.8559L34.9184 5.22754" stroke="#292D32" stroke-width="1.5" stroke-linecap="round"/>
<path d="M34.9184 11.8559L28.29 5.22754" stroke="#292D32" stroke-width="1.5" stroke-linecap="round"/>
<path d="M4.56128 32.3728L12.9834 26.7182C14.3329 25.8128 16.2804 25.9153 17.4934 26.9574L18.0571 27.4528C19.3896 28.5974 21.5421 28.5974 22.8746 27.4528L29.9813 21.354C31.3138 20.2095 33.4663 20.2095 34.7988 21.354L37.5834 23.7457" stroke="#292D32" stroke-width="1.5" stroke-linecap="round" stroke-linejoin="round"/>
</svg>
