<svg width="19" height="19" viewBox="0 0 19 19" fill="none" xmlns="http://www.w3.org/2000/svg">
<path d="M12.8636 4.90909L13.8717 3.90103M12.8636 4.90909L12.3317 4.55447C11.9292 4.28612 11.3923 4.3444 11.0567 4.69288L1.68068 14.4295C1.30269 14.822 1.30857 15.4449 1.69389 15.8303L3.16975 17.3061C3.55507 17.6914 4.17797 17.6973 4.57049 17.3193L14.9091 7.36364V7.36364C15.135 7.1377 15.135 6.77139 14.9091 6.54545L14.5 6.13636M12.8636 4.90909L13.6818 5.52273M14.5 6.13636L15.4967 5.04904M14.5 6.13636L13.6818 5.52273M13.8717 3.90103L15.4967 5.04904M13.8717 3.90103L14.9091 2.86364M15.4967 5.04904L16.375 4.09091M16.375 4.09091L14.9091 2.86364M16.375 4.09091L17.2489 3.13756M14.9091 2.86364L15.8229 1.94981M15.8229 1.94981L17.2489 3.13756M15.8229 1.94981L16.7978 0.974904M17.2489 3.13756L18.1245 2.18242M18.1245 2.18242L18.4263 1.85308C18.7471 1.50315 18.7354 0.962645 18.3997 0.62697V0.62697C18.0534 0.280704 17.492 0.280704 17.1458 0.62697L16.7978 0.974904M18.1245 2.18242L16.7978 0.974904M13.6818 5.52273L10.4091 8.59091" stroke="black" stroke-width="0.5"/>
<path d="M3.45312 13.9077L5.90767 11.4531" stroke="black" stroke-width="0.5"/>
<path d="M6.72656 10.6346L7.54474 9.81641" stroke="black" stroke-width="0.5"/>
<path d="M1 15.1374L4.27273 14.7283M4.27273 14.7283L3.86364 18.0011M4.27273 14.7283L9.59091 9.41016" stroke="black" stroke-width="0.5"/>
</svg>
