<svg width="24" height="24" viewBox="0 0 24 24" fill="none" xmlns="http://www.w3.org/2000/svg">
<g clip-path="url(#clip0_51992_4624)">
<path d="M12.0015 22.853C12.4215 22.8433 12.8245 22.6855 13.1392 22.4073C13.454 22.1291 13.6603 21.7486 13.7215 21.333H10.2148C10.2778 21.7599 10.4937 22.1493 10.8224 22.4289C11.151 22.7085 11.5701 22.8592 12.0015 22.853Z" fill="#666666"/>
<path d="M21.8979 18.7536L21.6712 18.5536C21.0282 17.9807 20.4654 17.3236 19.9979 16.6003C19.4874 15.602 19.1814 14.5117 19.0979 13.3936V10.1003C19.0952 9.70023 19.0595 9.3011 18.9913 8.90693C17.862 8.67482 16.8476 8.05961 16.1199 7.16545C15.3922 6.27129 14.9958 5.15312 14.9979 4.00026V3.58026C14.3019 3.23772 13.554 3.01247 12.7846 2.91359V2.07359C12.7846 1.83755 12.6908 1.61118 12.5239 1.44427C12.357 1.27736 12.1306 1.18359 11.8946 1.18359C11.6585 1.18359 11.4322 1.27736 11.2653 1.44427C11.0984 1.61118 11.0046 1.83755 11.0046 2.07359V2.94693C9.28173 3.18996 7.70497 4.04809 6.5654 5.36288C5.42583 6.67768 4.8004 8.36035 4.80458 10.1003V13.3936C4.72109 14.5117 4.4151 15.602 3.90458 16.6003C3.44517 17.3218 2.89138 17.9788 2.25792 18.5536L2.03125 18.7536V20.6336H21.8979V18.7536Z" fill="#666666"/>
<path d="M20.0013 7.33366C21.8423 7.33366 23.3346 5.84127 23.3346 4.00033C23.3346 2.15938 21.8423 0.666992 20.0013 0.666992C18.1604 0.666992 16.668 2.15938 16.668 4.00033C16.668 5.84127 18.1604 7.33366 20.0013 7.33366Z" fill="#FF4242"/>
</g>
<defs>
<clipPath id="clip0_51992_4624">
<rect width="24" height="24" fill="white"/>
</clipPath>
</defs>
</svg>
