<svg width="457" height="133" viewBox="0 0 457 133" fill="none" xmlns="http://www.w3.org/2000/svg">
<path d="M0 14C0 6.26801 6.26801 0 14 0H443C450.732 0 457 6.26801 457 14V43.2108C457 47.7792 454.771 52.0603 451.028 54.6801L448.623 56.3638C440.595 61.9833 440.676 73.8997 448.779 79.41L450.872 80.8332C454.706 83.4398 457 87.7747 457 92.4102V119C457 126.732 450.732 133 443 133H14C6.26802 133 0 126.732 0 119V91.3321C0 86.4656 2.5272 81.9482 6.67432 79.4017L8.19006 78.471C17.2945 72.8805 17.034 59.563 7.71787 54.3328L7.14651 54.0121C2.73253 51.5341 0 46.8663 0 41.8043V14Z" fill="#191919"/>
</svg>
