<svg width="149" height="123" viewBox="0 0 149 123" fill="none" xmlns="http://www.w3.org/2000/svg">
<path d="M148.522 103.001C148.522 108.082 145.982 112.598 140.901 116.55C136.385 120.219 130.316 122.054 122.695 122.054C115.921 122.054 109.993 117.538 104.912 108.505C99.8312 99.1904 97.2908 88.7465 97.2908 77.1735C97.2908 63.3424 100.678 49.3701 107.452 35.2567C113.662 22.2724 123.118 10.5582 135.82 0.11431L148.522 6.46533C142.313 13.522 137.655 22.2724 134.55 32.7163C130.881 42.0311 129.046 52.6162 129.046 64.4714C129.046 69.27 132.292 75.621 138.784 83.5245C145.276 91.7103 148.522 98.2025 148.522 103.001ZM51.9868 103.001C51.9868 108.082 49.4464 112.598 44.3656 116.55C39.8493 120.219 33.9217 122.054 26.5827 122.054C19.526 122.054 13.4572 117.538 8.37639 108.505C3.29557 99.1904 0.755157 88.7465 0.755157 77.1735C0.755157 63.3424 4.14237 49.3701 10.9168 35.2567C17.1267 22.2724 26.5827 10.5582 39.2847 0.11431L51.9868 6.46533C46.3414 12.6752 41.684 21.4256 38.0145 32.7163C34.6273 43.7247 32.9337 54.3098 32.9337 64.4714C32.9337 69.27 36.1798 75.621 42.672 83.5245C48.8819 91.428 51.9868 97.9202 51.9868 103.001Z" fill="#CECECE" fill-opacity="0.25"/>
</svg>
