<svg width="286" height="38" viewBox="0 0 286 38" fill="none" xmlns="http://www.w3.org/2000/svg">
<path d="M284.477 33.0188C284.477 35.0078 282.832 36.6189 280.798 36.6189H160.401C158.367 36.6189 156.717 35.0078 156.717 33.0188V4.30893C156.717 2.32087 158.367 0.704102 160.401 0.704102H280.797C282.832 0.704102 284.476 2.32087 284.476 4.30893L284.477 33.0188Z" fill="black"/>
<path d="M280.411 0.747614C282.626 0.747614 284.429 2.50531 284.429 4.66539V32.6578C284.429 34.8179 282.626 36.5756 280.411 36.5756H160.785C158.57 36.5756 156.767 34.8179 156.767 32.6578V4.66539C156.767 2.50531 158.57 0.747614 160.785 0.747614H280.411ZM280.411 -1.64605e-05H160.785C158.154 -1.64605e-05 156 2.10058 156 4.66539V32.6578C156 35.2226 158.154 37.3232 160.785 37.3232H280.411C283.041 37.3232 285.196 35.2226 285.196 32.6578V4.66539C285.196 2.10058 283.041 -1.64605e-05 280.411 -1.64605e-05Z" fill="#A6A6A6"/>
<path d="M184.83 18.4604C184.802 15.4531 187.356 13.99 187.472 13.9219C186.026 11.8663 183.785 11.5854 182.997 11.563C181.115 11.3699 179.289 12.6613 178.33 12.6613C177.352 12.6613 175.875 11.5817 174.284 11.6134C172.236 11.6442 170.32 12.8003 169.269 14.5956C167.101 18.256 168.718 23.6353 170.796 26.5941C171.835 28.0431 173.049 29.6611 174.639 29.6042C176.194 29.5417 176.775 28.6375 178.652 28.6375C180.511 28.6375 181.057 29.6042 182.678 29.5678C184.347 29.5417 185.398 28.1122 186.4 26.65C187.602 24.9892 188.084 23.3535 188.103 23.2695C188.064 23.2564 184.862 22.0649 184.83 18.4604Z" fill="#F3F3F3"/>
<path d="M181.768 9.61664C182.604 8.59678 183.176 7.20929 183.017 5.80127C181.807 5.85352 180.293 6.61772 179.421 7.61518C178.65 8.49414 177.961 9.93482 178.139 11.2897C179.499 11.3886 180.895 10.6206 181.768 9.61664Z" fill="#F3F3F3"/>
<path d="M207.341 29.394H205.167L203.977 25.7466H199.839L198.705 29.394H196.589L200.689 16.9766H203.221L207.341 29.394ZM203.618 24.2163L202.541 20.9739C202.428 20.6426 202.214 19.8626 201.899 18.6346H201.861C201.736 19.1628 201.534 19.9428 201.256 20.9739L200.199 24.2163H203.618Z" fill="#F3F3F3"/>
<path d="M217.885 24.8075C217.885 26.3303 217.463 27.5339 216.619 28.4176C215.863 29.2042 214.924 29.597 213.803 29.597C212.593 29.597 211.724 29.1734 211.195 28.3261H211.157V33.0429H209.117V23.3883C209.117 22.4309 209.091 21.4484 209.041 20.4407H210.835L210.949 21.8599H210.988C211.668 20.7906 212.701 20.2568 214.086 20.2568C215.17 20.2568 216.074 20.6739 216.798 21.509C217.523 22.3451 217.885 23.4442 217.885 24.8075ZM215.806 24.8803C215.806 24.0088 215.605 23.2903 215.201 22.7248C214.76 22.1351 214.168 21.8403 213.425 21.8403C212.922 21.8403 212.464 22.0045 212.056 22.3283C211.646 22.6549 211.378 23.0813 211.253 23.6094C211.189 23.8557 211.158 24.0573 211.158 24.2159V25.7088C211.158 26.3601 211.363 26.9097 211.772 27.3585C212.182 27.8073 212.714 28.0313 213.369 28.0313C214.137 28.0313 214.735 27.742 215.163 27.1654C215.592 26.5878 215.806 25.8264 215.806 24.8803Z" fill="#F3F3F3"/>
<path d="M228.447 24.8075C228.447 26.3303 228.025 27.5339 227.18 28.4176C226.425 29.2042 225.486 29.597 224.366 29.597C223.156 29.597 222.287 29.1734 221.759 28.3261H221.72V33.0429H219.68V23.3883C219.68 22.4309 219.654 21.4484 219.604 20.4407H221.399L221.513 21.8599H221.551C222.231 20.7906 223.263 20.2568 224.65 20.2568C225.732 20.2568 226.637 20.6739 227.362 21.509C228.085 22.3451 228.447 23.4442 228.447 24.8075ZM226.369 24.8803C226.369 24.0088 226.167 23.2903 225.763 22.7248C225.322 22.1351 224.731 21.8403 223.988 21.8403C223.483 21.8403 223.027 22.0045 222.617 22.3283C222.208 22.6549 221.941 23.0813 221.815 23.6094C221.753 23.8557 221.72 24.0573 221.72 24.2159V25.7088C221.72 26.3601 221.925 26.9097 222.333 27.3585C222.743 27.8064 223.275 28.0313 223.931 28.0313C224.7 28.0313 225.298 27.742 225.726 27.1654C226.154 26.5878 226.369 25.8264 226.369 24.8803Z" fill="#F3F3F3"/>
<path d="M240.257 25.9121C240.257 26.9683 239.88 27.8277 239.125 28.4911C238.296 29.2161 237.141 29.5781 235.656 29.5781C234.286 29.5781 233.187 29.3206 232.355 28.8046L232.828 27.1465C233.724 27.6747 234.707 27.9396 235.778 27.9396C236.546 27.9396 237.144 27.7698 237.574 27.4321C238.002 27.0943 238.215 26.6408 238.215 26.0754C238.215 25.5715 238.039 25.1469 237.686 24.8026C237.335 24.4583 236.748 24.1383 235.929 23.8425C233.699 23.0316 232.585 21.8438 232.585 20.2818C232.585 19.2611 232.976 18.4241 233.757 17.7728C234.536 17.1206 235.576 16.7949 236.875 16.7949C238.034 16.7949 238.997 16.9918 239.766 17.3846L239.255 19.0063C238.538 18.6256 237.726 18.4353 236.818 18.4353C236.1 18.4353 235.539 18.6079 235.137 18.9513C234.798 19.2583 234.627 19.6324 234.627 20.0756C234.627 20.5664 234.822 20.9723 235.212 21.2914C235.552 21.5863 236.169 21.9054 237.065 22.2497C238.161 22.6799 238.966 23.1828 239.483 23.7594C239.999 24.3342 240.257 25.0536 240.257 25.9121Z" fill="#F3F3F3"/>
<path d="M247.002 21.9334H244.753V26.2806C244.753 27.3863 245.149 27.9387 245.943 27.9387C246.308 27.9387 246.611 27.9079 246.85 27.8463L246.906 29.357C246.504 29.5035 245.975 29.5772 245.32 29.5772C244.514 29.5772 243.884 29.3374 243.429 28.8587C242.977 28.3791 242.749 27.5748 242.749 26.4449V21.9315H241.409V20.4386H242.749V18.7992L244.753 18.2095V20.4386H247.002V21.9334Z" fill="#F3F3F3"/>
<path d="M257.15 24.8444C257.15 26.2207 256.746 27.3507 255.941 28.2343C255.095 29.144 253.974 29.5975 252.576 29.5975C251.228 29.5975 250.155 29.1618 249.355 28.2903C248.555 27.4188 248.155 26.3187 248.155 24.9928C248.155 23.6053 248.567 22.4688 249.393 21.5851C250.217 20.7006 251.329 20.2583 252.727 20.2583C254.074 20.2583 255.159 20.6941 255.977 21.5665C256.76 22.4128 257.15 23.5054 257.15 24.8444ZM255.033 24.9088C255.033 24.083 254.852 23.3748 254.486 22.7842C254.058 22.0694 253.447 21.713 252.654 21.713C251.834 21.713 251.211 22.0703 250.783 22.7842C250.417 23.3757 250.236 24.0951 250.236 24.9461C250.236 25.7719 250.417 26.4801 250.783 27.0698C251.224 27.7845 251.841 28.141 252.636 28.141C253.415 28.141 254.027 27.7771 254.468 27.0511C254.844 26.4493 255.033 25.7336 255.033 24.9088Z" fill="#F3F3F3"/>
<path d="M263.78 22.1902C263.579 22.1538 263.363 22.1351 263.137 22.1351C262.42 22.1351 261.865 22.3992 261.474 22.9282C261.134 23.3948 260.964 23.9845 260.964 24.6964V29.3945H258.925L258.944 23.2604C258.944 22.2284 258.918 21.2888 258.867 20.4416H260.644L260.719 22.1547H260.775C260.991 21.566 261.331 21.0919 261.796 20.7364C262.25 20.4164 262.741 20.2568 263.27 20.2568C263.459 20.2568 263.629 20.2699 263.78 20.2932V22.1902Z" fill="#F3F3F3"/>
<path d="M272.905 24.4937C272.905 24.8501 272.882 25.1506 272.831 25.396H266.71C266.734 26.2805 267.029 26.957 267.598 27.4235C268.114 27.8406 268.781 28.0496 269.6 28.0496C270.506 28.0496 271.333 27.9087 272.077 27.626L272.396 29.007C271.527 29.3765 270.501 29.5603 269.318 29.5603C267.894 29.5603 266.776 29.1516 265.962 28.3352C265.151 27.5187 264.744 26.4223 264.744 25.047C264.744 23.6968 265.122 22.5724 265.879 21.6758C266.672 20.7184 267.742 20.2397 269.09 20.2397C270.413 20.2397 271.415 20.7184 272.096 21.6758C272.635 22.4362 272.905 23.3768 272.905 24.4937ZM270.96 23.9777C270.973 23.388 270.84 22.8785 270.564 22.4483C270.211 21.895 269.668 21.6188 268.938 21.6188C268.271 21.6188 267.728 21.8885 267.314 22.4297C266.974 22.8598 266.772 23.3758 266.71 23.9767H270.96V23.9777Z" fill="#F3F3F3"/>
<path d="M202.943 9.33903C202.943 10.4373 202.605 11.264 201.93 11.8192C201.305 12.3314 200.417 12.588 199.267 12.588C198.697 12.588 198.208 12.5638 197.8 12.5152V6.51459C198.333 6.43062 198.907 6.3877 199.527 6.3877C200.623 6.3877 201.449 6.62003 202.006 7.08471C202.63 7.61003 202.943 8.36116 202.943 9.33903ZM201.885 9.36609C201.885 8.65415 201.692 8.1083 201.305 7.7276C200.919 7.34784 200.354 7.15749 199.61 7.15749C199.295 7.15749 199.026 7.17802 198.803 7.22094V11.7828C198.926 11.8014 199.152 11.8098 199.48 11.8098C200.248 11.8098 200.84 11.6018 201.257 11.1856C201.675 10.7694 201.885 10.1629 201.885 9.36609Z" fill="#F3F3F3"/>
<path d="M208.549 10.2984C208.549 10.9748 208.351 11.5291 207.955 11.9639C207.54 12.4109 206.989 12.6339 206.302 12.6339C205.64 12.6339 205.113 12.4202 204.719 11.991C204.327 11.5627 204.131 11.0224 204.131 10.3711C204.131 9.68999 204.333 9.13107 204.739 8.69719C205.144 8.26331 205.69 8.0459 206.377 8.0459C207.039 8.0459 207.571 8.25957 207.974 8.68786C208.357 9.10401 208.549 9.64147 208.549 10.2984ZM207.509 10.3301C207.509 9.92419 207.419 9.57615 207.24 9.28596C207.03 8.93512 206.73 8.75971 206.341 8.75971C205.938 8.75971 205.631 8.93512 205.421 9.28596C205.241 9.57615 205.152 9.92979 205.152 10.3478C205.152 10.7537 205.242 11.1017 205.421 11.3919C205.638 11.7428 205.941 11.9182 206.331 11.9182C206.714 11.9182 207.014 11.74 207.231 11.3826C207.416 11.0868 207.509 10.736 207.509 10.3301Z" fill="#F3F3F3"/>
<path d="M216.069 8.13623L214.657 12.5348H213.738L213.154 10.6248C213.005 10.148 212.885 9.67395 212.791 9.20368H212.773C212.686 9.68701 212.565 10.1601 212.41 10.6248L211.789 12.5348H210.86L209.532 8.13623H210.563L211.073 10.2273C211.196 10.7218 211.298 11.193 211.379 11.639H211.397C211.472 11.2714 211.596 10.803 211.77 10.2366L212.41 8.13716H213.227L213.841 10.1918C213.989 10.6929 214.11 11.1753 214.202 11.64H214.23C214.298 11.1874 214.401 10.705 214.536 10.1918L215.084 8.13716H216.069V8.13623Z" fill="#F3F3F3"/>
<path d="M221.268 12.5344H220.265V10.0151C220.265 9.23873 219.962 8.85057 219.356 8.85057C219.058 8.85057 218.818 8.95694 218.631 9.17062C218.447 9.3843 218.353 9.63623 218.353 9.92455V12.5334H217.35V9.39269C217.35 9.0064 217.337 8.58744 217.313 8.13397H218.195L218.242 8.82165H218.27C218.386 8.60797 218.56 8.43162 218.789 8.29072C219.061 8.1265 219.365 8.04346 219.698 8.04346C220.119 8.04346 220.47 8.17595 220.748 8.44188C221.095 8.76753 221.268 9.25366 221.268 9.89936V12.5344Z" fill="#F3F3F3"/>
<path d="M224.034 12.534H223.032V6.11719H224.034V12.534Z" fill="#F3F3F3"/>
<path d="M229.939 10.2984C229.939 10.9748 229.741 11.5291 229.345 11.9639C228.929 12.4109 228.378 12.6339 227.692 12.6339C227.029 12.6339 226.501 12.4202 226.109 11.991C225.717 11.5627 225.521 11.0224 225.521 10.3711C225.521 9.68999 225.722 9.13107 226.128 8.69719C226.534 8.26331 227.079 8.0459 227.766 8.0459C228.429 8.0459 228.96 8.25957 229.364 8.68786C229.747 9.10401 229.939 9.64147 229.939 10.2984ZM228.898 10.3301C228.898 9.92419 228.808 9.57615 228.629 9.28596C228.419 8.93512 228.119 8.75971 227.73 8.75971C227.326 8.75971 227.02 8.93512 226.811 9.28596C226.631 9.57615 226.542 9.92979 226.542 10.3478C226.542 10.7537 226.632 11.1017 226.811 11.3919C227.028 11.7428 227.33 11.9182 227.721 11.9182C228.103 11.9182 228.403 11.74 228.619 11.3826C228.806 11.0868 228.898 10.736 228.898 10.3301Z" fill="#F3F3F3"/>
<path d="M234.792 12.534H233.891L233.816 12.0274H233.789C233.48 12.4314 233.041 12.6339 232.471 12.6339C232.045 12.6339 231.7 12.5004 231.441 12.2354C231.206 11.9947 231.088 11.6952 231.088 11.3397C231.088 10.8022 231.318 10.3926 231.78 10.1089C232.241 9.82528 232.89 9.68625 233.725 9.69279V9.61068C233.725 9.03123 233.413 8.74198 232.788 8.74198C232.343 8.74198 231.951 8.85115 231.612 9.06762L231.408 8.42566C231.828 8.1728 232.345 8.0459 232.956 8.0459C234.135 8.0459 234.726 8.6524 234.726 9.86541V11.4852C234.726 11.9247 234.748 12.2746 234.792 12.534ZM233.75 11.0224V10.3441C232.644 10.3254 232.091 10.6212 232.091 11.2305C232.091 11.46 232.154 11.6317 232.283 11.7465C232.412 11.8613 232.577 11.9182 232.773 11.9182C232.993 11.9182 233.199 11.8501 233.387 11.7148C233.575 11.5785 233.691 11.4059 233.734 11.1941C233.745 11.1465 233.75 11.0887 233.75 11.0224Z" fill="#F3F3F3"/>
<path d="M240.492 12.534H239.602L239.555 11.8276H239.527C239.243 12.3651 238.759 12.6338 238.079 12.6338C237.535 12.6338 237.082 12.4258 236.723 12.0096C236.365 11.5934 236.186 11.0532 236.186 10.3898C236.186 9.67783 236.38 9.10118 236.77 8.66077C237.148 8.25021 237.611 8.04493 238.163 8.04493C238.768 8.04493 239.192 8.24368 239.434 8.64211H239.453V6.11719H240.457V11.349C240.457 11.7773 240.468 12.172 240.492 12.534ZM239.453 10.679V9.94562C239.453 9.81872 239.443 9.71608 239.425 9.6377C239.369 9.40257 239.247 9.20475 239.062 9.0452C238.876 8.88564 238.651 8.8054 238.391 8.8054C238.017 8.8054 237.724 8.95002 237.509 9.24021C237.296 9.5304 237.188 9.90083 237.188 10.3534C237.188 10.7882 237.29 11.1409 237.496 11.4124C237.713 11.7017 238.006 11.8463 238.372 11.8463C238.702 11.8463 238.965 11.7259 239.165 11.4843C239.358 11.2613 239.453 10.9925 239.453 10.679Z" fill="#F3F3F3"/>
<path d="M249.068 10.2984C249.068 10.9748 248.87 11.5291 248.474 11.9639C248.058 12.4109 247.509 12.6339 246.821 12.6339C246.16 12.6339 245.632 12.4202 245.238 11.991C244.846 11.5627 244.649 11.0224 244.649 10.3711C244.649 9.68999 244.851 9.13107 245.257 8.69719C245.663 8.26331 246.208 8.0459 246.896 8.0459C247.558 8.0459 248.091 8.25957 248.493 8.68786C248.876 9.10401 249.068 9.64147 249.068 10.2984ZM248.029 10.3301C248.029 9.92419 247.939 9.57615 247.76 9.28596C247.548 8.93512 247.25 8.75971 246.859 8.75971C246.457 8.75971 246.151 8.93512 245.939 9.28596C245.76 9.57615 245.671 9.92979 245.671 10.3478C245.671 10.7537 245.76 11.1017 245.939 11.3919C246.157 11.7428 246.459 11.9182 246.85 11.9182C247.232 11.9182 247.534 11.74 247.75 11.3826C247.935 11.0868 248.029 10.736 248.029 10.3301Z" fill="#F3F3F3"/>
<path d="M254.461 12.5344H253.459V10.0151C253.459 9.23873 253.157 8.85057 252.549 8.85057C252.251 8.85057 252.011 8.95694 251.826 9.17062C251.64 9.3843 251.547 9.63623 251.547 9.92455V12.5334H250.543V9.39269C250.543 9.0064 250.532 8.58744 250.508 8.13397H251.388L251.435 8.82165H251.463C251.581 8.60797 251.755 8.43162 251.983 8.29072C252.255 8.1265 252.559 8.04346 252.893 8.04346C253.313 8.04346 253.663 8.17595 253.942 8.44188C254.289 8.76753 254.461 9.25366 254.461 9.89936V12.5344Z" fill="#F3F3F3"/>
<path d="M261.21 8.86795H260.106V11.0047C260.106 11.5478 260.302 11.8193 260.691 11.8193C260.871 11.8193 261.02 11.8044 261.138 11.7736L261.164 12.5154C260.965 12.5881 260.705 12.6245 260.385 12.6245C259.988 12.6245 259.68 12.507 259.457 12.2718C259.233 12.0367 259.122 11.6411 259.122 11.0859V8.86795H258.463V8.13548H259.122V7.32929L260.105 7.04004V8.13454H261.209V8.86795H261.21Z" fill="#F3F3F3"/>
<path d="M266.52 12.534H265.516V10.0333C265.516 9.24488 265.213 8.85018 264.607 8.85018C264.142 8.85018 263.825 9.07879 263.65 9.536C263.621 9.63211 263.604 9.74967 263.604 9.88777V12.5331H262.602V6.11719H263.604V8.76807H263.623C263.939 8.28567 264.391 8.04493 264.978 8.04493C265.393 8.04493 265.737 8.17743 266.009 8.44336C266.349 8.7746 266.52 9.26727 266.52 9.91856V12.534Z" fill="#F3F3F3"/>
<path d="M271.997 10.1263C271.997 10.3017 271.984 10.4491 271.96 10.5695H268.952C268.965 11.0043 269.109 11.3356 269.387 11.5651C269.642 11.7704 269.97 11.873 270.372 11.873C270.817 11.873 271.223 11.804 271.588 11.6649L271.745 12.3442C271.318 12.5252 270.814 12.6157 270.231 12.6157C269.533 12.6157 268.983 12.4151 268.584 12.0139C268.184 11.6127 267.986 11.0743 267.986 10.3987C267.986 9.73532 268.171 9.18293 268.543 8.74252C268.932 8.27225 269.457 8.03711 270.12 8.03711C270.769 8.03711 271.262 8.27225 271.595 8.74252C271.864 9.11575 271.997 9.57763 271.997 10.1263ZM271.04 9.87341C271.048 9.58322 270.982 9.33316 270.846 9.12228C270.672 8.85076 270.407 8.71453 270.048 8.71453C269.72 8.71453 269.453 8.84702 269.25 9.11295C269.083 9.32476 268.984 9.57763 268.952 9.87341H271.04Z" fill="#F3F3F3"/>
<path d="M124.24 37.3242H4.77846C2.1515 37.3242 0 35.2236 0 32.6588V4.66637C0 2.10156 2.1515 0.00095774 4.77846 0.00095774H124.24C126.867 0.00095774 129.018 2.10156 129.018 4.66637V32.6588C129.018 35.2236 126.867 37.3242 124.24 37.3242Z" fill="black"/>
<path d="M124.24 0.748588C126.452 0.748588 128.253 2.50628 128.253 4.66637V32.6588C128.253 34.8189 126.452 36.5766 124.24 36.5766H4.77846C2.56603 36.5766 0.765747 34.8189 0.765747 32.6588V4.66637C0.765747 2.50628 2.56603 0.748588 4.77846 0.748588H124.24ZM124.24 0.00095774H4.77846C2.1515 0.00095774 0 2.10156 0 4.66637V32.6588C0 35.2236 2.1515 37.3242 4.77846 37.3242H124.24C126.867 37.3242 129.018 35.2236 129.018 32.6588V4.66637C129.018 2.10156 126.867 0.00095774 124.24 0.00095774Z" fill="#A6A6A6"/>
<path d="M45.3168 9.5589C45.3168 10.338 45.0779 10.962 44.6072 11.4274C44.066 11.9791 43.3612 12.2567 42.4975 12.2567C41.672 12.2567 40.9672 11.9744 40.389 11.4181C39.8096 10.8535 39.5205 10.1607 39.5205 9.33146C39.5205 8.50218 39.8096 7.80937 40.389 7.24952C40.9672 6.68851 41.672 6.40625 42.4975 6.40625C42.9084 6.40625 43.3003 6.48906 43.6742 6.64302C44.0469 6.79814 44.3503 7.00809 44.5701 7.26702L44.0708 7.75922C43.6873 7.31717 43.1653 7.09906 42.4975 7.09906C41.8954 7.09906 41.3734 7.30434 40.9302 7.7184C40.4917 8.13362 40.2719 8.67131 40.2719 9.33146C40.2719 9.99162 40.4917 10.534 40.9302 10.9492C41.3734 11.3586 41.8954 11.5685 42.4975 11.5685C43.1366 11.5685 43.6742 11.3586 44.0983 10.9445C44.3778 10.6704 44.5367 10.2925 44.5785 9.80966H42.4975V9.13551H45.2738C45.3072 9.28131 45.3168 9.42244 45.3168 9.5589V9.5589Z" fill="#F3F3F3" stroke="black" stroke-width="0.16" stroke-miterlimit="10"/>
<path d="M49.7211 7.22165H47.1133V8.9945H49.4643V9.66865H47.1133V11.4415H49.7211V12.1285H46.375V6.53467H49.7211V7.22165Z" fill="#F3F3F3" stroke="black" stroke-width="0.16" stroke-miterlimit="10"/>
<path d="M52.8291 12.128H52.0908V7.22116H50.4912V6.53418H54.4299V7.22116H52.8291V12.128V12.128Z" fill="#F3F3F3" stroke="black" stroke-width="0.16" stroke-miterlimit="10"/>
<path d="M57.2783 12.128V6.53418H58.0154V12.128H57.2783Z" fill="#F3F3F3" stroke="black" stroke-width="0.16" stroke-miterlimit="10"/>
<path d="M61.2841 12.128H60.5518V7.22116H58.9463V6.53418H62.8897V7.22116H61.2841V12.128Z" fill="#F3F3F3" stroke="black" stroke-width="0.16" stroke-miterlimit="10"/>
<path d="M70.3494 11.4087C69.7844 11.9744 69.0843 12.2567 68.2493 12.2567C67.4095 12.2567 66.7095 11.9744 66.1444 11.4087C65.5805 10.8442 65.2998 10.1514 65.2998 9.33146C65.2998 8.51152 65.5805 7.8187 66.1444 7.25419C66.7095 6.68851 67.4095 6.40625 68.2493 6.40625C69.0796 6.40625 69.7796 6.68851 70.3447 7.25885C70.9133 7.82803 71.194 8.51618 71.194 9.33146C71.194 10.1514 70.9133 10.8442 70.3494 11.4087ZM66.6903 10.9399C67.1156 11.3586 67.6329 11.5685 68.2493 11.5685C68.8609 11.5685 69.383 11.3586 69.8035 10.9399C70.2276 10.5211 70.4426 9.98345 70.4426 9.33146C70.4426 8.67947 70.2276 8.14178 69.8035 7.72306C69.383 7.30434 68.8609 7.0944 68.2493 7.0944C67.6329 7.0944 67.1156 7.30434 66.6903 7.72306C66.2662 8.14178 66.0512 8.67947 66.0512 9.33146C66.0512 9.98345 66.2662 10.5211 66.6903 10.9399V10.9399Z" fill="#F3F3F3" stroke="black" stroke-width="0.16" stroke-miterlimit="10"/>
<path d="M72.2285 12.128V6.53418H73.1245L75.9103 10.8847H75.9426L75.9103 9.80929V6.53418H76.6474V12.128H75.8781L72.9608 7.5629H72.9286L72.9608 8.64294V12.128H72.2285V12.128Z" fill="#F3F3F3" stroke="black" stroke-width="0.16" stroke-miterlimit="10"/>
<path d="M65.1151 20.2976C62.8705 20.2976 61.0367 21.9655 61.0367 24.2667C61.0367 26.5493 62.8705 28.2346 65.1151 28.2346C67.3646 28.2346 69.1983 26.5493 69.1983 24.2667C69.1983 21.9655 67.3646 20.2976 65.1151 20.2976ZM65.1151 26.6717C63.8835 26.6717 62.8239 25.6792 62.8239 24.2667C62.8239 22.8356 63.8835 21.8605 65.1151 21.8605C66.3468 21.8605 67.4112 22.8356 67.4112 24.2667C67.4112 25.6792 66.3468 26.6717 65.1151 26.6717V26.6717ZM56.2165 20.2976C53.967 20.2976 52.1381 21.9655 52.1381 24.2667C52.1381 26.5493 53.967 28.2346 56.2165 28.2346C58.4647 28.2346 60.2949 26.5493 60.2949 24.2667C60.2949 21.9655 58.4647 20.2976 56.2165 20.2976ZM56.2165 26.6717C54.9836 26.6717 53.9204 25.6792 53.9204 24.2667C53.9204 22.8356 54.9836 21.8605 56.2165 21.8605C57.4481 21.8605 58.5077 22.8356 58.5077 24.2667C58.5077 25.6792 57.4481 26.6717 56.2165 26.6717ZM45.6274 21.5141V23.2007H49.7524C49.6318 24.1431 49.3092 24.8359 48.8146 25.3188C48.2126 25.9019 47.2748 26.5493 45.6274 26.5493C43.0889 26.5493 41.101 24.549 41.101 22.0705C41.101 19.592 43.0889 17.5917 45.6274 17.5917C47 17.5917 47.9987 18.1154 48.7358 18.7942L49.9531 17.6057C48.9222 16.6446 47.5507 15.9063 45.6274 15.9063C42.1463 15.9063 39.2207 18.6717 39.2207 22.0705C39.2207 25.4692 42.1463 28.2346 45.6274 28.2346C47.5089 28.2346 48.9222 27.6328 50.0331 26.5038C51.1716 25.3922 51.5264 23.8293 51.5264 22.5673C51.5264 22.1755 51.493 21.815 51.4332 21.5141H45.6274ZM88.9274 22.8216C88.5917 21.934 87.556 20.2976 85.4463 20.2976C83.3557 20.2976 81.6152 21.906 81.6152 24.2667C81.6152 26.4898 83.3378 28.2346 85.647 28.2346C87.5142 28.2346 88.5917 27.1231 89.0349 26.4758L87.6491 25.5742C87.1868 26.2344 86.5573 26.6717 85.647 26.6717C84.7426 26.6717 84.094 26.267 83.6782 25.4692L89.1149 23.273L88.9274 22.8216V22.8216ZM83.3844 24.1431C83.3378 22.6128 84.6017 21.829 85.5072 21.829C86.2168 21.829 86.8189 22.1755 87.0196 22.6712L83.3844 24.1431V24.1431ZM78.9655 27.9932H80.7526V16.3297H78.9655V27.9932ZM76.0387 21.1817H75.979C75.5776 20.7175 74.8118 20.2976 73.8418 20.2976C71.8062 20.2976 69.945 22.0425 69.945 24.2795C69.945 26.5038 71.8062 28.2346 73.8418 28.2346C74.8118 28.2346 75.5776 27.8113 75.979 27.3331H76.0387V27.9022C76.0387 29.4197 75.2084 30.2349 73.8693 30.2349C72.7774 30.2349 72.1001 29.4651 71.8205 28.8178L70.2663 29.4512C70.7143 30.5032 71.9006 31.7979 73.8693 31.7979C75.9646 31.7979 77.7327 30.5942 77.7327 27.6655V20.5391H76.0387V21.1817V21.1817ZM73.9947 26.6717C72.7631 26.6717 71.7321 25.6652 71.7321 24.2795C71.7321 22.8811 72.7631 21.8605 73.9947 21.8605C75.2084 21.8605 76.1653 22.8811 76.1653 24.2795C76.1653 25.6652 75.2084 26.6717 73.9947 26.6717V26.6717ZM97.2945 16.3297H93.0201V27.9932H94.8025V23.5739H97.2945C99.2739 23.5739 101.215 22.1755 101.215 19.9512C101.215 17.7282 99.2692 16.3297 97.2945 16.3297V16.3297ZM97.341 21.9515H94.8025V17.9521H97.341C98.6718 17.9521 99.4316 19.031 99.4316 19.9512C99.4316 20.854 98.6718 21.9515 97.341 21.9515ZM108.359 20.2755C107.071 20.2755 105.732 20.8306 105.181 22.0611L106.763 22.7085C107.103 22.0611 107.729 21.8512 108.391 21.8512C109.316 21.8512 110.254 22.3936 110.268 23.3511V23.4736C109.945 23.2916 109.255 23.0222 108.406 23.0222C106.702 23.0222 104.966 23.9378 104.966 25.6465C104.966 27.2094 106.362 28.216 107.93 28.216C109.129 28.216 109.791 27.6876 110.207 27.073H110.268V27.9746H111.989V23.5004C111.989 21.4325 110.408 20.2755 108.359 20.2755ZM108.144 26.6671C107.561 26.6671 106.749 26.3848 106.749 25.6792C106.749 24.7764 107.762 24.43 108.639 24.43C109.423 24.43 109.791 24.5991 110.268 24.8219C110.128 25.9019 109.176 26.6671 108.144 26.6671V26.6671ZM118.261 20.5309L116.212 25.587H116.151L114.033 20.5309H112.111L115.294 27.5967L113.478 31.5284H115.34L120.244 20.5309H118.261V20.5309ZM102.195 27.9932H103.982V16.3297H102.195V27.9932Z" fill="#F3F3F3"/>
<path d="M9.9725 7.03456C9.69176 7.32148 9.5293 7.76819 9.5293 8.3467V28.9818C9.5293 29.5603 9.69176 30.007 9.9725 30.2939L10.0418 30.3569L21.8852 18.7984V18.5255L10.0418 6.96691L9.9725 7.03456Z" fill="url(#paint0_linear_1_19039)"/>
<path d="M25.8292 22.6528L21.8857 18.798V18.5251L25.8339 14.6703L25.9223 14.7205L30.5981 17.3179C31.9324 18.0551 31.9324 19.2681 30.5981 20.0099L25.9223 22.6027L25.8292 22.6528V22.6528Z" fill="url(#paint1_linear_1_19039)"/>
<path d="M25.9229 22.6033L21.8863 18.6622L9.97363 30.2943C10.4168 30.7491 11.1396 30.804 11.9615 30.3491L25.9229 22.6033" fill="url(#paint2_linear_1_19039)"/>
<path d="M25.9229 14.7205L11.9615 6.97478C11.1396 6.52457 10.4168 6.57938 9.97363 7.03426L21.8863 18.6616L25.9229 14.7205Z" fill="url(#paint3_linear_1_19039)"/>
<defs>
<linearGradient id="paint0_linear_1_19039" x1="20.8336" y1="29.1967" x2="5.17878" y2="13.1625" gradientUnits="userSpaceOnUse">
<stop stop-color="#00A0FF"/>
<stop offset="0.0066" stop-color="#00A1FF"/>
<stop offset="0.2601" stop-color="#00BEFF"/>
<stop offset="0.5122" stop-color="#00D2FF"/>
<stop offset="0.7604" stop-color="#00DFFF"/>
<stop offset="1" stop-color="#00E3FF"/>
</linearGradient>
<linearGradient id="paint1_linear_1_19039" x1="32.3357" y1="18.6603" x2="9.21089" y2="18.6603" gradientUnits="userSpaceOnUse">
<stop stop-color="#FFE000"/>
<stop offset="0.4087" stop-color="#FFBD00"/>
<stop offset="0.7754" stop-color="#FFA500"/>
<stop offset="1" stop-color="#FF9C00"/>
</linearGradient>
<linearGradient id="paint2_linear_1_19039" x1="23.7279" y1="16.5198" x2="2.49868" y2="-5.22389" gradientUnits="userSpaceOnUse">
<stop stop-color="#FF3A44"/>
<stop offset="1" stop-color="#C31162"/>
</linearGradient>
<linearGradient id="paint3_linear_1_19039" x1="6.97496" y1="37.1588" x2="16.4548" y2="27.4494" gradientUnits="userSpaceOnUse">
<stop stop-color="#32A071"/>
<stop offset="0.0685" stop-color="#2DA771"/>
<stop offset="0.4762" stop-color="#15CF74"/>
<stop offset="0.8009" stop-color="#06E775"/>
<stop offset="1" stop-color="#00F076"/>
</linearGradient>
</defs>
</svg>
