<svg width="66" height="36" viewBox="0 0 66 36" fill="none" xmlns="http://www.w3.org/2000/svg">
<path d="M52.3528 16.2148C52.3528 21.4643 47.1654 25.7548 40.6813 25.7548C34.2589 25.7548 29.0098 21.4643 29.0098 16.2148C29.0098 10.9653 34.1971 6.6748 40.6195 6.6748C47.1654 6.6748 52.3528 10.9653 52.3528 16.2148Z" fill="#FFB600"/>
<path d="M40.6813 6.6748C47.1037 6.6748 52.3528 10.9653 52.3528 16.2148C52.3528 21.4643 47.1654 25.7548 40.6813 25.7548C34.2589 25.7548 29.0098 21.4643 29.0098 16.2148" fill="#F7981D"/>
<path d="M40.6807 6.6748C47.1031 6.6748 52.3522 10.9653 52.3522 16.2148C52.3522 21.4643 47.1648 25.7548 40.6807 25.7548" fill="#FF8500"/>
<path d="M24.9953 6.6748C18.6346 6.72528 13.4473 10.9653 13.4473 16.2148C13.4473 21.4643 18.6346 25.7548 25.1188 25.7548C28.1447 25.7548 30.8619 24.7958 32.9615 23.2815C33.3938 22.9786 33.7643 22.6253 34.1349 22.2719H31.7264C31.4177 21.9691 31.1089 21.6158 30.8619 21.3129H34.9994C35.2464 21.01 35.4934 20.6567 35.6787 20.3034H30.1826C29.9973 20.0005 29.8121 19.6472 29.6886 19.2939H36.111C36.4815 18.3348 36.7285 17.3253 36.7285 16.2653C36.7285 15.5586 36.605 14.9024 36.4815 14.2462H29.318C29.3798 13.8929 29.5033 13.59 29.6268 13.2367H36.0492C35.9257 12.8834 35.7405 12.53 35.5552 12.2272H30.1208C30.3061 11.8739 30.5531 11.571 30.8001 11.2177H34.9377C34.6906 10.8643 34.3819 10.511 34.0113 10.2081H31.7264C32.097 9.8548 32.4675 9.55195 32.8998 9.24909C30.8619 7.68433 28.083 6.77576 25.057 6.77576C25.057 6.6748 25.057 6.6748 24.9953 6.6748Z" fill="#FF5050"/>
<path d="M13.4473 16.2144C13.4473 21.464 18.6346 25.7544 25.1188 25.7544C28.1447 25.7544 30.8619 24.7954 32.9615 23.2811C33.3938 22.9782 33.7643 22.6249 34.1349 22.2716H31.7264C31.4177 21.9687 31.1089 21.6154 30.8619 21.3125H34.9994C35.2464 21.0097 35.4934 20.6563 35.6787 20.303H30.1826C29.9973 20.0002 29.8121 19.6468 29.6886 19.2935H36.111C36.4815 18.3344 36.7285 17.3249 36.7285 16.2649C36.7285 15.5582 36.605 14.9021 36.4815 14.2459H29.318C29.3798 13.8925 29.5033 13.5897 29.6268 13.2363H36.0492C35.9257 12.883 35.7405 12.5297 35.5552 12.2268H30.1208C30.3061 11.8735 30.5531 11.5706 30.8001 11.2173H34.9377C34.6906 10.864 34.3819 10.5106 34.0113 10.2078H31.7264C32.097 9.85444 32.4675 9.55158 32.8998 9.24872C30.8619 7.68396 28.083 6.77539 25.057 6.77539H24.9953" fill="#E52836"/>
<path d="M25.1186 25.7544C28.1446 25.7544 30.8617 24.7954 32.9614 23.2811C33.3937 22.9782 33.7642 22.6249 34.1347 22.2716H31.7263C31.4175 21.9687 31.1088 21.6154 30.8617 21.3125H34.9993C35.2463 21.0097 35.4933 20.6563 35.6786 20.303H30.1825C29.9972 20.0002 29.8119 19.6468 29.6884 19.2935H36.1108C36.4814 18.3344 36.7284 17.3249 36.7284 16.2649C36.7284 15.5582 36.6049 14.9021 36.4814 14.2459H29.3179C29.3797 13.8925 29.5032 13.5897 29.6267 13.2363H36.0491C35.9256 12.883 35.7403 12.5297 35.555 12.2268H30.1207C30.306 11.8735 30.553 11.5706 30.8 11.2173H34.9375C34.6905 10.864 34.3817 10.5106 34.0112 10.2078H31.7263C32.0968 9.85444 32.4674 9.55158 32.8996 9.24872C30.8617 7.68396 28.0828 6.77539 25.0569 6.77539H24.9951" fill="#CB2026"/>
<path d="M29.2557 18.6372L29.441 17.7791C29.3792 17.7791 29.2557 17.8296 29.1322 17.8296C28.6999 17.8296 28.6382 17.6277 28.6999 17.5267L29.0704 15.7601H29.7497L29.935 14.801H29.3175L29.441 14.1953H28.2059C28.2059 14.1953 27.4648 17.5267 27.4648 17.9306C27.4648 18.5363 27.8971 18.7886 28.4529 18.7886C28.8234 18.7886 29.1322 18.6877 29.2557 18.6372Z" fill="white"/>
<path fill-rule="evenodd" clip-rule="evenodd" d="M31.8499 18.7886C30.8618 18.7886 29.6885 18.4353 29.6885 17.022C29.6885 15.7601 30.6148 14.6496 31.9116 14.7505C33.2702 14.7505 33.7025 15.5581 33.7025 16.2143C33.7025 16.4667 33.5172 17.1229 33.5172 17.1229H30.9853C30.9853 17.1229 30.7383 17.9305 32.0969 17.9305C32.7144 17.9305 33.3937 17.6781 33.3937 17.6781L33.1467 18.6372C33.1467 18.6372 32.7762 18.7886 31.8499 18.7886ZM32.4075 16.2421C32.4202 16.1146 32.4755 15.5581 31.8499 15.5581C31.1706 15.5581 31.0471 16.2143 31.0471 16.2648H32.4057C32.4057 16.2608 32.4064 16.253 32.4075 16.2421Z" fill="white"/>
<path d="M39.6924 18.6374L39.9394 17.5269C39.9394 17.5269 39.3218 17.7793 38.8896 17.7793C38.025 17.7793 37.6545 17.2241 37.6545 16.6184C37.6545 15.4069 38.3955 14.7507 39.2601 14.7507C39.8776 14.7507 40.3717 15.0536 40.3717 15.0536L40.5569 13.9936C40.5569 13.9936 39.8159 13.7412 39.1366 13.7412C37.7162 13.7412 36.2959 14.7507 36.2959 16.6688C36.2959 17.9307 37.0369 18.7888 38.519 18.7888C39.0131 18.7888 39.6924 18.6374 39.6924 18.6374Z" fill="white"/>
<path fill-rule="evenodd" clip-rule="evenodd" d="M20.9808 14.8513C20.9808 14.8513 21.5983 14.6494 22.4629 14.6494C22.8951 14.6494 24.1302 14.6999 24.1302 15.9113L23.6362 18.6875H22.5246L22.5864 18.2837C22.5733 18.2837 22.5466 18.3039 22.5044 18.3358C22.3464 18.4551 21.9718 18.738 21.2895 18.738C20.8573 18.738 20.1162 18.5361 20.1162 17.6275C20.1162 16.4666 21.2895 16.1132 22.3394 16.1132H22.8951C22.8951 16.1132 22.9569 16.0627 22.9569 15.8608C22.9569 15.558 22.5864 15.5075 22.1541 15.5075C21.3513 15.5075 20.7955 15.7094 20.7955 15.7094L20.9808 14.8513ZM21.8454 17.8799C22.5864 17.8799 22.7099 17.0723 22.7099 16.9208C22.7099 16.9208 22.6482 16.9208 22.4629 16.8704C21.5366 16.8704 21.3513 17.2237 21.3513 17.4761C21.3513 17.6275 21.4748 17.8799 21.8454 17.8799Z" fill="white"/>
<path d="M25.3041 18.7387C25.6129 18.7387 27.1568 18.7891 27.1568 17.4263C27.1568 16.1644 25.6747 16.4168 25.6747 15.912C25.6747 15.6596 25.9217 15.5587 26.3539 15.5587C26.5392 15.5587 27.2185 15.6091 27.2185 15.6091L27.4038 14.7006C27.4038 14.7006 26.9715 14.5996 26.2304 14.5996C25.3041 14.5996 24.3778 14.9025 24.3778 15.912C24.3778 17.0729 25.9217 16.972 25.9217 17.4263C25.9217 17.7291 25.4894 17.7796 25.1806 17.7796C24.6248 17.7796 24.0691 17.6282 24.0691 17.6282L23.8838 18.5368C23.9455 18.6377 24.2543 18.7387 25.3041 18.7387Z" fill="white"/>
<path fill-rule="evenodd" clip-rule="evenodd" d="M49.6968 15.2047L49.9438 13.8418L51.2406 13.8923L50.3143 18.738H49.0792L49.141 18.3847C49.141 18.3847 48.7087 18.7885 47.9677 18.7885C46.9179 18.7885 46.4238 17.9304 46.4238 17.1227C46.4238 15.8104 47.4119 14.6999 48.5235 14.6999C49.2028 14.6999 49.6968 15.2047 49.6968 15.2047ZM48.4 17.7789C49.0793 17.7789 49.3881 17.0723 49.3881 16.517C49.3881 15.9113 49.141 15.6589 48.7088 15.6589C48.153 15.6589 47.7207 16.1637 47.7207 16.9713C47.7207 17.4761 47.9677 17.7789 48.4 17.7789Z" fill="white"/>
<path d="M15.7319 18.6875L16.473 15.0532L16.5965 18.6875H17.461L19.0666 15.0532L18.3873 18.6875H19.6842L20.6722 13.8418H18.6344L17.3993 16.8199L17.3375 13.8418H15.5467L14.5586 18.6875H15.7319Z" fill="white"/>
<path d="M34.8762 18.6881C35.2467 17.0224 35.3084 15.6595 36.173 15.9119C36.2965 15.2557 36.4818 15.0034 36.6053 14.751C36.6053 14.751 36.5435 14.751 36.3583 14.751C35.8025 14.751 35.3702 15.3567 35.3702 15.3567L35.4937 14.8015H34.3204L33.5176 18.7386H34.8762V18.6881Z" fill="white"/>
<path fill-rule="evenodd" clip-rule="evenodd" d="M41.0511 14.8513C41.0511 14.8513 41.6686 14.6494 42.5332 14.6494C42.9655 14.6494 44.2623 14.6999 44.2005 15.9113L43.7065 18.6875H42.5949L42.6567 18.2837C42.6437 18.2837 42.6169 18.3039 42.5747 18.3358C42.4167 18.4551 42.0421 18.738 41.3599 18.738C40.9276 18.738 40.1865 18.5361 40.1865 17.6275C40.1865 16.4666 41.3599 16.1132 42.4097 16.1132H42.9655C42.9655 16.1132 43.0272 16.0627 43.0272 15.8608C43.0272 15.558 42.6567 15.5075 42.2244 15.5075C41.4216 15.5075 40.8658 15.7094 40.8658 15.7094L41.0511 14.8513ZM41.9774 17.8799C42.7185 17.8799 42.842 17.0723 42.842 16.9208C42.8268 16.9208 42.8153 16.9208 42.8039 16.9201C42.769 16.9178 42.7345 16.9084 42.595 16.8704C41.6687 16.8704 41.4834 17.2237 41.4834 17.4761C41.4834 17.6275 41.6069 17.8799 41.9774 17.8799Z" fill="white"/>
<path d="M45.2502 18.6881C45.6207 17.0224 45.6825 15.6595 46.547 15.9119C46.6705 15.2557 46.8558 15.0034 46.9793 14.751C46.9793 14.751 46.9175 14.751 46.7323 14.751C46.1765 14.751 45.7442 15.3567 45.7442 15.3567L45.8677 14.8015H44.6944L43.8916 18.7386H45.2502V18.6881Z" fill="white"/>
<path d="M27.3418 17.9306C27.3418 18.5363 27.7741 18.7886 28.3299 18.7886C28.7621 18.7886 29.1327 18.6877 29.2562 18.6372L29.4414 17.7791C29.3797 17.7791 29.2562 17.8296 29.1327 17.8296C28.7004 17.8296 28.6386 17.6277 28.7004 17.5267L29.0709 15.7601H29.7502L29.9355 14.801H29.3179L29.4414 14.1953" fill="#DCE5E5"/>
<path fill-rule="evenodd" clip-rule="evenodd" d="M31.8495 18.7886C30.8615 18.7886 30.3057 18.4353 30.3057 17.022C30.3057 15.7601 30.6144 14.6496 31.9113 14.7505C33.2699 14.7505 33.7021 15.5581 33.7021 16.2143C33.7021 16.4667 33.5169 17.1229 33.5169 17.1229H30.985C30.985 17.1229 30.7379 17.9305 32.0965 17.9305C32.7141 17.9305 33.3934 17.6781 33.3934 17.6781L33.1463 18.6372C33.1463 18.6372 32.7758 18.7886 31.8495 18.7886ZM32.6522 16.2648C32.6522 16.2143 32.5287 15.5581 31.8494 15.5581C31.1701 15.5581 31.0466 16.2143 31.0466 16.2648H32.6522Z" fill="#DCE5E5"/>
<path d="M39.692 18.6374L39.939 17.5269C39.939 17.5269 39.3215 17.7793 38.8892 17.7793C38.0247 17.7793 37.6541 17.2241 37.6541 16.6184C37.6541 15.4069 38.3952 14.7507 39.2597 14.7507C39.8773 14.7507 40.3713 15.0536 40.3713 15.0536L40.5566 13.9936C40.5566 13.9936 39.8155 13.7412 39.1362 13.7412C37.7159 13.7412 36.9131 14.7507 36.9131 16.6688C36.9131 17.9307 37.0366 18.7888 38.5187 18.7888C39.0127 18.7888 39.692 18.6374 39.692 18.6374Z" fill="#DCE5E5"/>
<path fill-rule="evenodd" clip-rule="evenodd" d="M22.1541 15.5586C21.3513 15.5586 20.7955 15.7605 20.7955 15.7605L22.4011 14.751C22.8951 14.751 24.1302 14.8015 24.1302 15.9624L23.6362 18.7386H22.5246L22.5864 18.3348C22.5733 18.3348 22.5466 18.355 22.5044 18.3869C22.3464 18.5062 21.9718 18.7891 21.2895 18.7891C20.8573 18.7891 20.1162 18.5872 20.1162 17.6786C20.1162 16.5176 21.2895 16.1643 22.3394 16.1643H22.8951C22.8951 16.1643 22.9569 16.1138 22.9569 15.9119C22.9569 15.6091 22.5864 15.5586 22.1541 15.5586ZM21.8454 17.8805C22.5864 17.8805 23.3275 17.0729 23.3275 16.9215C23.3275 16.9215 22.6482 16.9215 22.4629 16.871C21.5366 16.871 21.3513 17.2243 21.3513 17.4767C21.3513 17.6281 21.4748 17.8805 21.8454 17.8805Z" fill="#DCE5E5"/>
<path d="M23.9453 18.6377C23.9453 18.6377 24.3158 18.7387 25.3657 18.7387C25.6744 18.7387 27.2183 18.7891 27.2183 17.4263C27.2183 16.1644 25.7362 16.4168 25.7362 15.912C25.7362 15.6596 25.9832 15.5587 26.4155 15.5587C26.6007 15.5587 27.28 15.6091 27.28 15.6091L27.4653 14.7006C27.4653 14.7006 27.033 14.5996 26.292 14.5996C25.3657 14.5996 25.0569 14.9025 25.0569 15.912C25.0569 17.0729 25.9832 16.972 25.9832 17.4263C25.9832 17.7291 25.5509 17.7796 25.2421 17.7796" fill="#DCE5E5"/>
<path fill-rule="evenodd" clip-rule="evenodd" d="M48.5237 14.7002C49.203 14.7002 49.697 15.205 49.697 15.205L51.2409 13.8926L50.3146 18.7383H49.0795L49.1412 18.385C49.1412 18.385 48.7089 18.7888 47.9679 18.7888C47.0185 18.7888 47.0287 18.087 47.0393 17.3554C47.0405 17.278 47.0416 17.2003 47.0416 17.1231C47.0416 15.8107 47.4121 14.7002 48.5237 14.7002ZM48.4002 17.7792C49.0795 17.7792 49.6353 17.0726 49.6353 16.5173C49.6353 15.9116 49.1412 15.6592 48.709 15.6592C48.1532 15.6592 47.7209 16.164 47.7209 16.9716C47.7209 17.4764 47.9679 17.7792 48.4002 17.7792Z" fill="#DCE5E5"/>
<path d="M15.7319 18.6875L16.473 15.0532L16.5965 18.6875H17.461L19.0666 15.0532L18.3873 18.6875H19.6842L20.6722 13.8418H19.1284L17.3993 16.8199L17.3375 13.8418H16.6582L14.5586 18.6875H15.7319Z" fill="#DCE5E5"/>
<path d="M33.5791 18.6881H34.8759C35.2465 17.0224 35.3082 15.6595 36.1728 15.9119C36.2963 15.2557 36.4815 15.0034 36.605 14.751C36.605 14.751 36.5433 14.751 36.358 14.751C35.8022 14.751 35.37 15.3567 35.37 15.3567L35.4935 14.8015" fill="#DCE5E5"/>
<path fill-rule="evenodd" clip-rule="evenodd" d="M42.2244 15.5586C41.4216 15.5586 40.8658 15.7605 40.8658 15.7605L42.4714 14.751C42.9655 14.751 44.2005 14.8015 44.2005 15.9624L43.7065 18.7386H42.5949L42.6567 18.3348C42.6437 18.3348 42.6169 18.355 42.5747 18.3869C42.4167 18.5062 42.0421 18.7891 41.3599 18.7891C40.9276 18.7891 40.1865 18.5872 40.1865 17.6786C40.1865 16.5176 41.3599 16.1643 42.4097 16.1643H42.9655C42.9655 16.1643 43.0272 16.1138 43.0272 15.9119C43.0272 15.6091 42.6567 15.5586 42.2244 15.5586ZM41.9157 17.8805C42.6567 17.8805 43.3978 17.0729 43.3978 16.9215C43.3978 16.9215 42.7802 16.9215 42.5332 16.871C41.6069 16.871 41.4217 17.2243 41.4217 17.4767C41.4217 17.6281 41.5452 17.8805 41.9157 17.8805Z" fill="#DCE5E5"/>
<path d="M43.9531 18.6881H45.25C45.6205 17.0224 45.6822 15.6595 46.5468 15.9119C46.6703 15.2557 46.8556 15.0034 46.9791 14.751C46.9791 14.751 46.9173 14.751 46.7321 14.751C46.1763 14.751 45.744 15.3567 45.744 15.3567L45.8675 14.8015" fill="#DCE5E5"/>
</svg>
