<svg width="317" height="96" viewBox="0 0 317 96" fill="none" xmlns="http://www.w3.org/2000/svg">
<path d="M0 14.6087C0 6.54053 6.26801 0 14 0H303C310.732 0 317 6.54053 317 14.6087V30.6239C317 34.2754 315.244 37.7302 312.375 39.8203C306.302 44.2434 306.236 53.7369 312.365 58.0739C315.264 60.125 317 63.542 317 67.1967V81.3913C317 89.4595 310.732 96 303 96H14C6.26802 96 0 89.4595 0 81.3913V66.2476C0 62.5345 1.85019 59.0885 4.88485 57.1495L5.38629 56.8291C11.825 52.7151 11.641 42.8908 5.05329 39.0423C1.93275 37.2193 0 33.7789 0 30.0471V14.6087Z" fill="#191919"/>
</svg>
