<svg width="22" height="21" viewBox="0 0 22 21" fill="none" xmlns="http://www.w3.org/2000/svg">
<path d="M15.9986 11.8285C15.629 12.1722 15.4178 12.6668 15.4706 13.1949C15.5498 14.1002 16.421 14.7624 17.3713 14.7624H19.0432V15.7599C19.0432 17.495 17.5561 18.9116 15.7346 18.9116H5.63281C3.81133 18.9116 2.32422 17.495 2.32422 15.7599V10.1186C2.32422 8.38342 3.81133 6.9668 5.63281 6.9668H15.7346C17.5561 6.9668 19.0432 8.38342 19.0432 10.1186V11.3256H17.2657C16.7729 11.3256 16.3242 11.51 15.9986 11.8285Z" stroke="#292D32" stroke-width="1.5" stroke-linecap="round" stroke-linejoin="round"/>
<path d="M2.32422 10.8728V7.04216C2.32422 6.04466 2.96658 5.1561 3.94332 4.80404L10.9301 2.28934C12.0212 1.89537 13.1915 2.66657 13.1915 3.78142V6.96669" stroke="#292D32" stroke-width="1.5" stroke-linecap="round" stroke-linejoin="round"/>
<path d="M19.9762 12.1806V13.9075C19.9762 14.3685 19.5891 14.7457 19.0963 14.7624H17.3716C16.4213 14.7624 15.5501 14.1002 15.4709 13.1949C15.4181 12.6668 15.6293 12.1723 15.9989 11.8286C16.3245 11.5101 16.7732 11.3257 17.266 11.3257H19.0963C19.5891 11.3424 19.9762 11.7196 19.9762 12.1806Z" stroke="#292D32" stroke-width="1.5" stroke-linecap="round" stroke-linejoin="round"/>
<path d="M6.28516 10.5288H12.4448" stroke="#292D32" stroke-width="1.5" stroke-linecap="round" stroke-linejoin="round"/>
</svg>
