<svg width="38" height="38" viewBox="0 0 38 38" fill="none" xmlns="http://www.w3.org/2000/svg">
<ellipse cx="19.2458" cy="18.9858" rx="18.3669" ry="18.1264" fill="white"/>
<path fill-rule="evenodd" clip-rule="evenodd" d="M18.781 14.2818C17.2204 12.4868 14.6178 12.0039 12.6624 13.6476C10.707 15.2913 10.4317 18.0394 11.9673 19.9834C13.244 21.5997 17.1079 25.0085 18.3743 26.1118C18.516 26.2353 18.5868 26.297 18.6695 26.3212C18.7416 26.3424 18.8205 26.3424 18.8926 26.3212C18.9752 26.297 19.0461 26.2353 19.1878 26.1118C20.4541 25.0085 24.318 21.5997 25.5948 19.9834C27.1304 18.0394 26.8887 15.274 24.8997 13.6476C22.9106 12.0212 20.3417 12.4868 18.781 14.2818Z" stroke="#3C4242" stroke-width="1.26066" stroke-linecap="round" stroke-linejoin="round"/>
</svg>
