<svg width="15" height="20" viewBox="0 0 15 20" fill="none" xmlns="http://www.w3.org/2000/svg">
<path d="M7.19814 10.1371C5.57455 10.1607 4.24144 8.83613 4.233 7.17375C4.22456 5.51141 5.54406 4.156 7.16765 4.13238C8.79121 4.10877 10.1243 5.43336 10.1328 7.0957C10.1412 8.75808 8.8217 10.1135 7.19814 10.1371ZM7.17357 5.2976C6.18266 5.31201 5.37122 6.1473 5.37639 7.16489C5.38155 8.18251 6.19373 8.99418 7.19226 8.97965C8.19079 8.96513 8.99458 8.12996 8.98941 7.11233C8.98425 6.09474 8.16447 5.28319 7.17357 5.2976Z" fill="black"/>
<path d="M7.08608 18.9092C5.95689 18.9257 4.97074 16.433 4.08132 15.5825C1.81937 13.4062 -0.685774 9.91878 0.23139 5.7126C1.05897 1.89667 4.30817 0.145808 7.15403 0.104398L7.16166 0.104287C10.0075 0.0628766 13.274 1.71893 14.1402 5.51799C15.0923 9.69697 12.6229 13.249 10.3834 15.4908C9.50274 16.367 8.21526 18.8928 7.08608 18.9092ZM7.15995 1.27115C4.93973 1.30346 2.09237 2.55062 1.35425 5.95297C0.548844 9.62855 2.82324 12.7537 4.87813 14.723C6.20465 16.0028 8.27228 15.9727 9.58561 14.6545C11.6126 12.6258 13.8549 9.43494 13.0276 5.78311C12.2474 2.40285 9.38017 1.23884 7.15995 1.27115Z" fill="black"/>
</svg>
