<svg width="18" height="20" viewBox="0 0 18 20" fill="none" xmlns="http://www.w3.org/2000/svg">
<path d="M8.81293 10.522C6.96273 10.5371 5.43884 9.17445 5.42338 7.4736C5.40793 5.77279 6.90691 4.39343 8.75711 4.37834C10.6073 4.36324 12.1312 5.72589 12.1466 7.4267C12.1621 9.12754 10.6631 10.5069 8.81293 10.522ZM8.76794 5.57052C7.63873 5.57973 6.71693 6.42978 6.72639 7.47092C6.73585 8.51209 7.66428 9.34705 8.80217 9.33777C9.94006 9.32849 10.8531 8.4785 10.8437 7.43733C10.8342 6.39619 9.89715 5.5613 8.76794 5.57052Z" fill="#079646"/>
<path d="M8.70819 19.4703C7.42237 19.4808 6.29063 16.9282 5.27481 16.0541C2.69134 13.8177 -0.173663 10.2402 0.856033 5.94733C1.78508 2.05271 5.47904 0.281755 8.71967 0.255318L8.72836 0.255247C11.969 0.22881 15.6946 1.93924 16.6943 5.82606C17.7932 10.1016 14.9935 13.7173 12.4511 15.9956C11.4513 16.8861 9.99402 19.4598 8.70819 19.4703ZM8.73051 1.44757C6.20229 1.4682 2.96417 2.7267 2.13555 6.1992C1.23126 9.95053 3.83223 13.1566 6.17918 15.1803C7.69427 16.4954 10.0487 16.4762 11.5397 15.1366C13.8408 13.0749 16.3831 9.82692 15.4282 6.09076C14.5279 2.63236 11.2587 1.42695 8.73051 1.44757Z" fill="#079646"/>
</svg>
