<svg width="220" height="36" viewBox="0 0 220 36" fill="none" xmlns="http://www.w3.org/2000/svg">
<path d="M20.3235 0L24.8864 12.4377H39.6524L27.7065 20.1246L32.2694 32.5623L20.3235 24.8754L8.37766 32.5623L12.9406 20.1246L0.994705 12.4377H15.7606L20.3235 0Z" fill="#EFAE2C"/>
<path d="M65.136 0L69.6989 12.4377H84.4649L72.519 20.1246L77.0819 32.5623L65.136 24.8754L53.1902 32.5623L57.7531 20.1246L45.8072 12.4377H60.5731L65.136 0Z" fill="#EFAE2C"/>
<path d="M109.956 0L114.519 12.4377H129.285L117.339 20.1246L121.902 32.5623L109.956 24.8754L98.0105 32.5623L102.573 20.1246L90.6275 12.4377H105.393L109.956 0Z" fill="#EFAE2C"/>
<path d="M154.769 0L159.332 12.4377H174.098L162.152 20.1246L166.715 32.5623L154.769 24.8754L142.823 32.5623L147.386 20.1246L135.44 12.4377H150.206L154.769 0Z" fill="#EFAE2C"/>
<path d="M199.581 0L204.144 12.4377H218.91L206.964 20.1246L211.527 32.5623L199.581 24.8754L187.635 32.5623L192.198 20.1246L180.253 12.4377H195.018L199.581 0Z" fill="#EFAE2C"/>
</svg>
