<svg width="23" height="17" viewBox="0 0 23 17" fill="none" xmlns="http://www.w3.org/2000/svg">
<path d="M20.2174 0.547852H2.88117C1.5429 0.547852 0.454102 1.68991 0.454102 3.09363V14.0041C0.454102 15.4078 1.5429 16.5499 2.88117 16.5499H20.2174C21.5557 16.5499 22.6445 15.4078 22.6445 14.0041V3.09363C22.6445 1.68991 21.5557 0.547852 20.2174 0.547852ZM2.88117 2.00258H20.2174C20.7909 2.00258 21.2576 2.49205 21.2576 3.09363V4.54836H11.5493H1.841V3.09363C1.841 2.49205 2.30765 2.00258 2.88117 2.00258ZM20.2174 15.0952H2.88117C2.30765 15.0952 1.841 14.6057 1.841 14.0041V6.00309H11.5493H21.2576V14.0041C21.2576 14.6057 20.7909 15.0952 20.2174 15.0952Z" fill="white"/>
</svg>
