<svg width="32" height="32" viewBox="0 0 32 32" fill="none" xmlns="http://www.w3.org/2000/svg">
<rect width="32" height="32" fill="white" style="mix-blend-mode:multiply"/>
<path d="M29.0002 27.5861L21.4481 20.034C23.2629 17.8554 24.1678 15.061 23.9747 12.2322C23.7815 9.40331 22.5053 6.75782 20.4113 4.84601C18.3173 2.9342 15.5669 1.90327 12.7322 1.96769C9.89755 2.03211 7.19681 3.1869 5.19186 5.19186C3.1869 7.19681 2.03211 9.89755 1.96769 12.7322C1.90327 15.5669 2.9342 18.3173 4.84601 20.4113C6.75782 22.5053 9.40331 23.7815 12.2322 23.9747C15.061 24.1678 17.8554 23.2629 20.034 21.4481L27.5861 29.0002L29.0002 27.5861ZM4.00024 13.0002C4.00024 11.2202 4.52808 9.48015 5.51701 8.0001C6.50594 6.52006 7.91155 5.36651 9.55609 4.68532C11.2006 4.00413 13.0102 3.8259 14.756 4.17317C16.5019 4.52044 18.1055 5.3776 19.3642 6.63628C20.6229 7.89495 21.48 9.49859 21.8273 11.2444C22.1746 12.9903 21.9963 14.7999 21.3152 16.4444C20.634 18.0889 19.4804 19.4945 18.0004 20.4835C16.5203 21.4724 14.7803 22.0002 13.0002 22.0002C10.6141 21.9976 8.32645 21.0485 6.6392 19.3613C4.95194 17.674 4.00288 15.3864 4.00024 13.0002Z" fill="white"/>
</svg>
