<svg width="48" height="48" viewBox="0 0 48 48" fill="none" xmlns="http://www.w3.org/2000/svg">
<rect width="16" height="16" transform="translate(16 16)" fill="white" style="mix-blend-mode:multiply"/>
<path d="M30.5001 29.7931L26.7241 26.017C27.6314 24.9277 28.0839 23.5305 27.9873 22.1161C27.8908 20.7017 27.2526 19.3789 26.2057 18.423C25.1587 17.4671 23.7835 16.9516 22.3661 16.9838C20.9488 17.0161 19.5984 17.5935 18.5959 18.5959C17.5935 19.5984 17.0161 20.9488 16.9838 22.3661C16.9516 23.7835 17.4671 25.1587 18.423 26.2057C19.3789 27.2526 20.7017 27.8908 22.1161 27.9873C23.5305 28.0839 24.9277 27.6314 26.017 26.7241L29.7931 30.5001L30.5001 29.7931ZM18.0001 22.5001C18.0001 21.6101 18.264 20.7401 18.7585 20.0001C19.253 19.26 19.9558 18.6833 20.778 18.3427C21.6003 18.0021 22.5051 17.913 23.378 18.0866C24.2509 18.2602 25.0528 18.6888 25.6821 19.3181C26.3114 19.9475 26.74 20.7493 26.9137 21.6222C27.0873 22.4951 26.9982 23.3999 26.6576 24.2222C26.317 25.0445 25.7402 25.7473 25.0002 26.2417C24.2602 26.7362 23.3901 27.0001 22.5001 27.0001C21.3071 26.9988 20.1632 26.5243 19.3196 25.6806C18.476 24.837 18.0014 23.6932 18.0001 22.5001Z" fill="#5B5757"/>
</svg>
