<svg width="25" height="25" viewBox="0 0 25 25" fill="none" xmlns="http://www.w3.org/2000/svg">
<path d="M12.02 20.5H8.5C7.88 20.5 7.33 20.48 6.84 20.41C4.21 20.12 3.5 18.88 3.5 15.5V10.5C3.5 7.12 4.21 5.88 6.84 5.59C7.33 5.52 7.88 5.5 8.5 5.5H11.96" stroke="black" stroke-width="1.5" stroke-linecap="round" stroke-linejoin="round"/>
<path d="M16.0195 5.5H17.4995C18.1195 5.5 18.6695 5.52 19.1595 5.59C21.7895 5.88 22.4995 7.12 22.4995 10.5V15.5C22.4995 18.88 21.7895 20.12 19.1595 20.41C18.6695 20.48 18.1195 20.5 17.4995 20.5H16.0195" stroke="black" stroke-width="1.5" stroke-linecap="round" stroke-linejoin="round"/>
<path d="M16 3V23" stroke="black" stroke-width="1.5" stroke-linecap="round" stroke-linejoin="round"/>
<path d="M9 9.5V16.5" stroke="black" stroke-width="1.5" stroke-linecap="round" stroke-linejoin="round"/>
</svg>
