<svg width="25" height="25" viewBox="0 0 25 25" fill="none" xmlns="http://www.w3.org/2000/svg">
<path fill-rule="evenodd" clip-rule="evenodd" d="M21.6744 7.94131L21.0261 6.81621C20.4775 5.86421 19.262 5.5358 18.3087 6.08205C17.8549 6.34936 17.3135 6.4252 16.8037 6.29285C16.2939 6.16048 15.8577 5.8308 15.5913 5.37647C15.4199 5.0877 15.3278 4.75879 15.3243 4.42301C15.3398 3.88465 15.1367 3.36296 14.7613 2.97679C14.3859 2.59061 13.8701 2.37282 13.3316 2.37305H12.0253C11.4977 2.37304 10.9918 2.58329 10.6196 2.95728C10.2474 3.33128 10.0396 3.83816 10.0421 4.3658C10.0265 5.45517 9.13884 6.33006 8.04935 6.32994C7.71357 6.32645 7.38466 6.23436 7.09589 6.06297C6.14258 5.51672 4.92701 5.84514 4.37849 6.79715L3.68246 7.94131C3.1346 8.89212 3.45855 10.1069 4.40709 10.6587C5.02367 11.0147 5.40349 11.6726 5.40349 12.3845C5.40349 13.0964 5.02367 13.7542 4.40709 14.1103C3.45976 14.6583 3.13546 15.8702 3.68246 16.8181L4.34035 17.9528C4.59735 18.4165 5.02856 18.7587 5.53855 18.9036C6.04854 19.0486 6.59526 18.9843 7.05775 18.7251C7.51239 18.4598 8.05417 18.3871 8.56266 18.5232C9.07116 18.6592 9.50422 18.9928 9.7656 19.4497C9.93699 19.7385 10.0291 20.0674 10.0326 20.4032C10.0326 21.5037 10.9247 22.3959 12.0253 22.3959H13.3316C14.4285 22.3959 15.3191 21.5096 15.3243 20.4127C15.3218 19.8834 15.531 19.3751 15.9051 19.0008C16.2794 18.6265 16.7878 18.4174 17.3171 18.42C17.6521 18.4289 17.9796 18.5206 18.2706 18.687C19.2214 19.2348 20.4362 18.9108 20.9879 17.9623L21.6744 16.8181C21.9401 16.3621 22.0132 15.8188 21.8771 15.3087C21.7411 14.7987 21.4073 14.3639 20.9498 14.1007C20.4922 13.8375 20.1586 13.4027 20.0225 12.8927C19.8865 12.3827 19.9594 11.8395 20.2251 11.3833C20.3979 11.0816 20.6482 10.8315 20.9498 10.6587C21.8926 10.1072 22.2159 8.89952 21.6744 7.95085V7.94131Z" stroke="black" stroke-width="1.5" stroke-linecap="round" stroke-linejoin="round"/>
<path d="M12.6815 15.1302C14.1981 15.1302 15.4275 13.9008 15.4275 12.3842C15.4275 10.8676 14.1981 9.63818 12.6815 9.63818C11.165 9.63818 9.93555 10.8676 9.93555 12.3842C9.93555 13.9008 11.165 15.1302 12.6815 15.1302Z" stroke="black" stroke-width="1.5" stroke-linecap="round" stroke-linejoin="round"/>
</svg>
