<svg width="17" height="16" viewBox="0 0 17 16" fill="none" xmlns="http://www.w3.org/2000/svg">
<path d="M7.54894 1.47783C7.8483 0.556523 9.1517 0.556521 9.45106 1.47783L10.6329 5.11512C10.7668 5.52714 11.1507 5.8061 11.5839 5.8061H15.4084C16.3771 5.8061 16.7799 7.04572 15.9962 7.61512L12.9021 9.86309C12.5516 10.1177 12.405 10.5691 12.5389 10.9811L13.7207 14.6184C14.02 15.5397 12.9656 16.3058 12.1818 15.7364L9.08779 13.4885C8.7373 13.2338 8.2627 13.2338 7.91222 13.4885L4.81815 15.7364C4.03444 16.3058 2.97996 15.5397 3.27931 14.6184L4.46114 10.9811C4.59501 10.5691 4.44835 10.1177 4.09787 9.86309L1.00381 7.61512C0.220092 7.04572 0.622867 5.8061 1.59159 5.8061H5.41606C5.84929 5.8061 6.23324 5.52714 6.36712 5.11512L7.54894 1.47783Z" fill="#F4BD14"/>
</svg>
