<svg width="23" height="21" viewBox="0 0 23 21" fill="none" xmlns="http://www.w3.org/2000/svg">
<path d="M15.8281 14.6955C18.204 12.4322 18.204 8.6602 15.8281 6.39697" stroke="#17191C" stroke-width="1.5" stroke-miterlimit="10" stroke-linecap="round" stroke-linejoin="round"/>
<path d="M7.20376 6.48096C4.82791 8.74419 4.82791 12.5162 7.20376 14.7795" stroke="#17191C" stroke-width="1.5" stroke-miterlimit="10" stroke-linecap="round" stroke-linejoin="round"/>
<path d="M9.49219 11.9293C9.49219 12.6837 10.1081 13.2705 10.9001 13.2705H12.396C13.012 13.2705 13.6279 12.7675 13.6279 12.0969C13.6279 11.3425 13.276 11.091 12.836 10.9234L10.3721 10.0852C9.75617 10.0013 9.49219 9.74987 9.49219 9.07929C9.49219 8.4087 10.0202 7.90576 10.7241 7.90576H12.308C13.1 7.90576 13.7159 8.49252 13.7159 9.24693" stroke="#17191C" stroke-width="1.5" stroke-linecap="round" stroke-linejoin="round"/>
<path d="M11.5156 7.06738V14.1085" stroke="#17191C" stroke-width="1.5" stroke-linecap="round" stroke-linejoin="round"/>
<path d="M11.5163 18.9702C16.3761 18.9702 20.3157 15.2173 20.3157 10.5879C20.3157 5.95846 16.3761 2.20557 11.5163 2.20557C6.65645 2.20557 2.7168 5.95846 2.7168 10.5879C2.7168 15.2173 6.65645 18.9702 11.5163 18.9702Z" stroke="#17191C" stroke-width="1.5" stroke-miterlimit="10" stroke-linecap="round" stroke-linejoin="round"/>
</svg>
