<svg width="23" height="23" viewBox="0 0 23 23" fill="none" xmlns="http://www.w3.org/2000/svg">
<path d="M16.376 6.624C15.0305 5.2785 13.271 4.6 11.5 4.6V11.5L6.624 16.376C9.315 19.067 13.685 19.067 16.3875 16.376C19.0785 13.685 19.0785 9.315 16.376 6.624ZM11.5 0C5.152 0 0 5.152 0 11.5C0 17.848 5.152 23 11.5 23C17.848 23 23 17.848 23 11.5C23 5.152 17.848 0 11.5 0ZM11.5 20.7C6.417 20.7 2.3 16.583 2.3 11.5C2.3 6.417 6.417 2.3 11.5 2.3C16.583 2.3 20.7 6.417 20.7 11.5C20.7 16.583 16.583 20.7 11.5 20.7Z" fill="#989EA1"/>
</svg>
