<svg width="53" height="13" viewBox="0 0 53 13" fill="none" xmlns="http://www.w3.org/2000/svg">
<path d="M20.002 12.6595L22.6372 0.408203H26.7547L24.2018 12.6595H20.002Z" fill="#3C58BF"/>
<path d="M20.002 12.6595L23.3783 0.408203H26.7547L24.2018 12.6595H20.002Z" fill="#293688"/>
<path d="M39.1074 0.544502C38.2839 0.272251 36.9663 0 35.3193 0C31.2018 0 28.2372 1.70157 28.2372 4.15183C28.2372 5.98953 30.2959 6.9424 31.9429 7.55497C33.5899 8.16753 34.084 8.57591 34.084 9.12041C34.084 9.93717 32.7664 10.3455 31.6135 10.3455C29.9665 10.3455 29.0607 10.1414 27.6607 9.66492L27.0843 9.46073L26.5078 12.2513C27.496 12.5916 29.3077 12.9319 31.2018 12.9319C35.5663 12.9319 38.4486 11.2304 38.4486 8.64397C38.4486 7.21466 37.378 6.12565 34.9075 5.24083C33.4252 4.62827 32.5194 4.28796 32.5194 3.67539C32.5194 3.13089 33.2605 2.58639 34.9075 2.58639C36.3075 2.58639 37.2957 2.79057 38.0368 3.06283L38.4486 3.19895L39.1074 0.544502Z" fill="#3C58BF"/>
<path d="M39.1074 0.544502C38.2839 0.272251 36.9663 0 35.3193 0C31.2018 0 28.9783 1.70157 28.9783 4.15183C28.9783 5.98953 30.2959 6.9424 31.9429 7.55497C33.5899 8.16753 34.084 8.57591 34.084 9.12041C34.084 9.93717 32.7664 10.3455 31.6135 10.3455C29.9665 10.3455 29.0607 10.1414 27.6607 9.66492L27.0843 9.46073L26.5078 12.2513C27.496 12.5916 29.3077 12.9319 31.2018 12.9319C35.5663 12.9319 38.4486 11.2304 38.4486 8.64397C38.4486 7.21466 37.378 6.12565 34.9075 5.24083C33.4252 4.62827 32.5194 4.28796 32.5194 3.67539C32.5194 3.13089 33.2605 2.58639 34.9075 2.58639C36.3075 2.58639 37.2957 2.79057 38.0368 3.06283L38.4486 3.19895L39.1074 0.544502Z" fill="#293688"/>
<path fill-rule="evenodd" clip-rule="evenodd" d="M44.0493 1.29302C44.4611 0.476266 45.2022 0.408203 46.1904 0.408203H49.4021L52.8608 12.6595H48.908L48.4139 10.6176H43.1435L42.32 12.6595H37.873L44.0493 1.29302ZM45.9432 4.96732C45.9432 4.96732 44.5433 7.96208 44.2962 8.57465V8.64271H47.755C47.5903 7.96208 46.7667 4.89926 46.7667 4.89926L46.5197 3.74219C46.2726 4.21863 45.9432 4.96732 45.9432 4.96732Z" fill="#3C58BF"/>
<path fill-rule="evenodd" clip-rule="evenodd" d="M45.0375 1.29302C45.4493 0.476266 46.1904 0.408203 47.1786 0.408203H49.4021L52.8608 12.6595H48.908L48.4139 10.6176H43.1435L42.32 12.6595H37.873L45.0375 1.29302ZM45.9432 4.96732C45.9432 4.96732 44.6256 7.89402 44.2962 8.57465V8.64271H47.755C47.5903 7.96208 46.7667 4.89926 46.7667 4.89926L46.5197 3.74219C46.2726 4.21863 45.9432 4.96732 45.9432 4.96732Z" fill="#293688"/>
<path d="M12.4233 8.98441L12.0116 7.21478C11.2704 5.1729 8.88227 2.92682 6.24707 1.83782L9.95283 12.7279H14.3997L21.0701 0.476562H16.6232L12.4233 8.98441Z" fill="#3C58BF"/>
<path d="M12.4233 8.98441L12.0116 7.21478C11.2704 5.1729 8.88227 2.92682 6.24707 1.83782L9.95283 12.7279H14.3997L21.0701 0.476562H17.4467L12.4233 8.98441Z" fill="#293688"/>
<path d="M0.978516 0.408203L1.71967 0.544329C6.99007 1.56527 10.6135 4.15166 12.0134 7.21448L10.5311 1.42914C10.2841 0.612392 9.54293 0.408203 8.63708 0.408203H0.978516V0.408203Z" fill="#FFBC00"/>
<path d="M0.978516 0.408203C6.24892 1.42915 10.6135 4.08359 12.0134 7.14642L10.6135 2.31396C10.3664 1.49721 9.54293 1.02077 8.63708 1.02077L0.978516 0.408203Z" fill="#F7981D"/>
<path d="M0.978516 0.408203C6.24892 1.42915 10.6135 4.08359 12.0134 7.14642L11.0252 4.49197C10.7782 3.67522 10.4488 2.85846 9.29588 2.51815L0.978516 0.408203Z" fill="#ED7C00"/>
<path d="M16.5415 8.57581L13.7416 6.26168L12.424 8.84806L12.0946 7.14649C11.3534 5.10461 8.96528 2.85854 6.33008 1.76953L10.0358 12.6596H14.4827L16.5415 8.57581Z" fill="#051244"/>
<path d="M24.2018 12.6588L20.6608 9.66406L20.002 12.6588H24.2018Z" fill="#051244"/>
<path d="M33.6723 8.43945C34.0017 8.7117 34.1664 8.91589 34.084 9.18814C34.084 10.0049 32.7664 10.4133 31.6135 10.4133C29.9665 10.4133 29.0607 10.2091 27.6607 9.73265L27.0843 9.52846L26.5078 12.319C27.496 12.6593 29.3077 12.9997 31.2018 12.9997C33.837 12.9997 35.9781 12.3871 37.2133 11.2981L33.6723 8.43945Z" fill="#051244"/>
<path d="M38.4463 12.6584H42.3167L43.1402 10.6165H48.4107L48.9048 12.6584H52.8576L51.4576 7.68983L46.5166 3.74219L46.7637 4.83119C46.7637 4.83119 47.5872 7.89402 47.7519 8.57465H44.2931C44.6225 7.89402 45.9401 4.96732 45.9401 4.96732C45.9401 4.96732 46.2695 4.21863 46.5166 3.74219" fill="#051244"/>
</svg>
