<svg width="21" height="21" viewBox="0 0 21 21" fill="none" xmlns="http://www.w3.org/2000/svg">
<path d="M0 21L1.47612 15.6074C0.565249 14.0289 0.0866248 12.2395 0.0874998 10.4046C0.0901248 4.66812 4.75824 0 10.4939 0C13.2772 0.000875 15.89 1.085 17.8552 3.052C19.8196 5.019 20.9011 7.6335 20.9002 10.4143C20.8976 16.1516 16.2295 20.8198 10.4939 20.8198C8.75261 20.8189 7.03673 20.3823 5.51686 19.5528L0 21ZM5.77236 17.6689C7.23886 18.5395 8.63886 19.061 10.4904 19.0619C15.2573 19.0619 19.1406 15.1821 19.1432 10.4125C19.145 5.63325 15.2801 1.75875 10.4974 1.757C5.72686 1.757 1.84625 5.63675 1.8445 10.4055C1.84362 12.3524 2.41412 13.8101 3.37224 15.3352L2.49812 18.5272L5.77236 17.6689ZM15.736 12.8879C15.6712 12.7794 15.498 12.7146 15.2372 12.5842C14.9773 12.4539 13.699 11.8247 13.4601 11.7381C13.2221 11.6515 13.0488 11.6078 12.8747 11.8685C12.7015 12.1284 12.2027 12.7146 12.0513 12.8879C11.9 13.0611 11.7477 13.083 11.4878 12.9526C11.228 12.8223 10.3897 12.5484 9.3966 11.662C8.62398 10.9725 8.10161 10.1211 7.95023 9.86038C7.79886 9.6005 7.93448 9.45963 8.06398 9.33013C8.18123 9.21375 8.32386 9.0265 8.45423 8.87425C8.58636 8.72375 8.62923 8.61525 8.71673 8.44113C8.80336 8.26788 8.76048 8.11563 8.69486 7.98525C8.62923 7.85575 8.10948 6.57563 7.89336 6.055C7.68161 5.54838 7.46723 5.61662 7.30798 5.60875L6.80924 5.6C6.63599 5.6 6.35424 5.66475 6.11624 5.9255C5.87824 6.18625 5.20624 6.8145 5.20624 8.09463C5.20624 9.37475 6.13811 10.6111 6.26761 10.7844C6.39799 10.9576 8.10073 13.5844 10.7091 14.7105C11.3295 14.9783 11.8142 15.1384 12.1913 15.2582C12.8143 15.456 13.3813 15.428 13.8293 15.3615C14.329 15.2871 15.3676 14.7324 15.5846 14.1251C15.8016 13.517 15.8016 12.9964 15.736 12.8879Z" fill="#3D4741"/>
</svg>
