<svg width="149" height="123" viewBox="0 0 149 123" fill="none" xmlns="http://www.w3.org/2000/svg">
<path d="M97.2908 19.346C97.2908 14.2651 99.8312 9.88998 104.912 6.2205C109.711 2.26875 115.638 0.29288 122.695 0.29288C129.752 0.29288 135.82 4.80917 140.901 13.8417C145.982 23.1566 148.522 33.6005 148.522 45.1735C148.522 59.0046 145.135 72.9769 138.361 87.0903C132.151 100.075 122.695 111.789 109.993 122.233L97.2908 115.882C102.936 109.672 107.594 100.921 111.263 89.6307C114.65 78.6223 116.344 68.0372 116.344 57.8756C116.344 53.077 113.098 46.726 106.606 38.8225C100.396 31.4835 97.2908 24.9913 97.2908 19.346ZM0.755157 19.346C0.755157 14.2651 3.29557 9.88998 8.37639 6.2205C13.175 2.26875 19.2437 0.29288 26.5827 0.29288C33.3571 0.29288 39.2847 4.80917 44.3656 13.8417C49.4464 23.1566 51.9868 33.6005 51.9868 45.1735C51.9868 59.0046 48.5996 72.9769 41.8252 87.0903C35.6153 100.075 26.1593 111.789 13.4572 122.233L0.755157 115.882C6.96505 108.825 11.6225 100.075 14.7274 89.6307C18.3969 80.3159 20.2317 69.7308 20.2317 57.8756C20.2317 53.077 16.9856 46.726 10.4934 38.8225C4.00124 30.919 0.755157 24.4268 0.755157 19.346Z" fill="#CECECE" fill-opacity="0.25"/>
</svg>
